<?xml version="1.0" encoding="UTF-8" standalone="no"?>
<svg
   width="3419.6538"
   zoomAndPan="magnify"
   viewBox="0 0 2564.7404 236.55183"
   height="315.40244"
   preserveAspectRatio="xMidYMid"
   version="1.0"
   id="svg370"
   sodipodi:docname="Orange Just Listed Social Media Graphic (4).svg"
   inkscape:export-filename="Orange Just Listed Social Media Graphic (5).svg"
   inkscape:export-xdpi="96"
   inkscape:export-ydpi="96"
   xmlns:inkscape="http://www.inkscape.org/namespaces/inkscape"
   xmlns:sodipodi="http://sodipodi.sourceforge.net/DTD/sodipodi-0.dtd"
   xmlns="http://www.w3.org/2000/svg"
   xmlns:svg="http://www.w3.org/2000/svg">
  <sodipodi:namedview
     id="namedview372"
     pagecolor="#ffffff"
     bordercolor="#000000"
     borderopacity="0.25"
     inkscape:showpageshadow="2"
     inkscape:pageopacity="0.0"
     inkscape:pagecheckerboard="0"
     inkscape:deskcolor="#d1d1d1"
     showgrid="false" />
  <defs
     id="defs26">
    <clipPath
       id="b385b6c0ba">
      <rect
         x="0"
         width="437"
         y="0"
         height="49"
         id="rect11" />
    </clipPath>
    <clipPath
       id="c903a77a9d">
      <path
         d="m 86,279.13672 h 36 V 328 H 86 Z m 0,0"
         clip-rule="nonzero"
         id="path14" />
    </clipPath>
    <clipPath
       id="2d8020285d">
      <path
         d="M 27,279.13672 H 81 V 316 H 27 Z m 0,0"
         clip-rule="nonzero"
         id="path17" />
    </clipPath>
    <clipPath
       id="05132a524e">
      <path
         d="m 85,279.13672 h 7 V 289 h -7 z m 0,0"
         clip-rule="nonzero"
         id="path20" />
    </clipPath>
    <clipPath
       id="4a075cc530">
      <rect
         x="0"
         width="337"
         y="0"
         height="16"
         id="rect23" />
    </clipPath>
  </defs>
  <g
     id="g703"
     transform="scale(4.6844318)">
    <g
       transform="translate(114.875,-11.062014)"
       id="g156">
      <g
         clip-path="url(#b385b6c0ba)"
         id="g154">
        <g
           fill="#000000"
           fill-opacity="1"
           id="g34">
          <g
             transform="translate(0.960576,36.733889)"
             id="g32">
            <g
               id="g30">
              <path
                 d="m 20.03125,-6.421875 c 0,-0.050781 0.05078,-0.078125 0.15625,-0.078125 0.08203,0 0.15625,0.023438 0.21875,0.0625 0.07031,0.042969 0.109375,0.074219 0.109375,0.09375 -0.273437,2.105469 -0.40625,4.015625 -0.40625,5.734375 0,0.21875 -0.04297,0.375 -0.125,0.46875 C 19.898438,-0.046875 19.738281,0 19.5,0 H 1.65625 c -0.085938,0 -0.125,-0.078125 -0.125,-0.234375 0,-0.164063 0.039062,-0.25 0.125,-0.25 0.863281,0 1.488281,-0.066406 1.875,-0.203125 C 3.925781,-0.820312 4.1875,-1.082031 4.3125,-1.46875 4.445312,-1.863281 4.515625,-2.460938 4.515625,-3.265625 V -21.96875 c 0,-0.800781 -0.070313,-1.390625 -0.203125,-1.765625 C 4.1875,-24.117188 3.921875,-24.382812 3.515625,-24.53125 3.109375,-24.675781 2.488281,-24.75 1.65625,-24.75 c -0.085938,0 -0.125,-0.07813 -0.125,-0.234375 0,-0.164063 0.039062,-0.25 0.125,-0.25 h 17.125 c 0.257812,0 0.390625,0.121094 0.390625,0.359375 l 0.09375,5.375 c 0,0.05469 -0.07813,0.09375 -0.234375,0.125 -0.148438,0.02344 -0.230469,-0.0039 -0.25,-0.07813 -0.4375,-1.5625 -1.167969,-2.71875 -2.1875,-3.46875 -1.023438,-0.757813 -2.367188,-1.140625 -4.03125,-1.140625 h -1.21875 c -0.804688,0 -1.398438,0.179688 -1.78125,0.53125 C 9.1875,-23.1875 9,-22.648438 9,-21.921875 v 8.234375 h 3.359375 c 1.5625,0 2.757813,-0.265625 3.59375,-0.796875 0.832031,-0.539063 1.25,-1.296875 1.25,-2.265625 0,-0.08203 0.07031,-0.125 0.21875,-0.125 0.144531,0 0.21875,0.04297 0.21875,0.125 l -0.03125,3.625 0.03125,1.9375 c 0.05078,0.917969 0.07813,1.648438 0.07813,2.1875 0,0.054688 -0.08594,0.078125 -0.25,0.078125 -0.15625,0 -0.234375,-0.023437 -0.234375,-0.078125 0,-1.101562 -0.421875,-1.972656 -1.265625,-2.609375 C 15.125,-12.242188 13.90625,-12.5625 12.3125,-12.5625 H 9 v 9.125 c 0,0.78125 0.144531,1.367188 0.4375,1.75 0.300781,0.375 0.773438,0.5625 1.421875,0.5625 H 12.1875 c 2.101562,0 3.785156,-0.429688 5.046875,-1.296875 1.269531,-0.863281 2.203125,-2.195313 2.796875,-4 z m 0,0"
                 id="path28" />
            </g>
          </g>
        </g>
        <g
           fill="#000000"
           fill-opacity="1"
           id="g42">
          <g
             transform="translate(25.471924,36.733889)"
             id="g40">
            <g
               id="g38">
              <path
                 d="m 26.84375,-25.234375 c 0.08203,0 0.125,0.08594 0.125,0.25 0,0.15625 -0.04297,0.234375 -0.125,0.234375 -0.96875,0 -1.898438,0.433594 -2.78125,1.296875 -0.886719,0.855469 -1.601562,2.011719 -2.140625,3.46875 l -7.46875,19.9375 C 14.421875,0.0664062 14.273438,0.125 14.015625,0.125 13.742188,0.125 13.59375,0.0664062 13.5625,-0.046875 L 3.265625,-21.890625 C 2.785156,-22.859375 2.300781,-23.578125 1.8125,-24.046875 1.332031,-24.515625 0.796875,-24.75 0.203125,-24.75 c -0.085937,0 -0.125,-0.07813 -0.125,-0.234375 0,-0.164063 0.039063,-0.25 0.125,-0.25 0.40625,0 0.6875,0.01563 0.84375,0.04687 0.539063,0.05469 1.242187,0.07813 2.109375,0.07813 2.3125,0 4.273438,-0.02344 5.890625,-0.07813 0.425781,-0.03125 0.960937,-0.04687 1.609375,-0.04687 0.08203,0 0.125,0.08594 0.125,0.25 0,0.15625 -0.04297,0.234375 -0.125,0.234375 -0.804688,0 -1.429688,0.171875 -1.875,0.515625 -0.449219,0.335937 -0.671875,0.808594 -0.671875,1.421875 0,0.460938 0.148437,1.011719 0.453125,1.65625 l 6.984375,14.890625 5.25,-13.84375 c 0.269531,-0.75 0.40625,-1.394531 0.40625,-1.9375 0,-0.832031 -0.25,-1.488281 -0.75,-1.96875 -0.5,-0.488281 -1.21875,-0.734375 -2.15625,-0.734375 -0.08594,0 -0.125,-0.07813 -0.125,-0.234375 0,-0.164063 0.03906,-0.25 0.125,-0.25 l 1.96875,0.04687 c 1.132813,0.05469 2.144531,0.07813 3.03125,0.07813 0.507813,0 1.140625,-0.02344 1.890625,-0.07813 z m 0,0"
                 id="path36" />
            </g>
          </g>
        </g>
        <g
           fill="#000000"
           fill-opacity="1"
           id="g50">
          <g
             transform="translate(54.344381,36.733889)"
             id="g48">
            <g
               id="g46">
              <path
                 d="m 20.03125,-6.421875 c 0,-0.050781 0.05078,-0.078125 0.15625,-0.078125 0.08203,0 0.15625,0.023438 0.21875,0.0625 0.07031,0.042969 0.109375,0.074219 0.109375,0.09375 -0.273437,2.105469 -0.40625,4.015625 -0.40625,5.734375 0,0.21875 -0.04297,0.375 -0.125,0.46875 C 19.898438,-0.046875 19.738281,0 19.5,0 H 1.65625 c -0.085938,0 -0.125,-0.078125 -0.125,-0.234375 0,-0.164063 0.039062,-0.25 0.125,-0.25 0.863281,0 1.488281,-0.066406 1.875,-0.203125 C 3.925781,-0.820312 4.1875,-1.082031 4.3125,-1.46875 4.445312,-1.863281 4.515625,-2.460938 4.515625,-3.265625 V -21.96875 c 0,-0.800781 -0.070313,-1.390625 -0.203125,-1.765625 C 4.1875,-24.117188 3.921875,-24.382812 3.515625,-24.53125 3.109375,-24.675781 2.488281,-24.75 1.65625,-24.75 c -0.085938,0 -0.125,-0.07813 -0.125,-0.234375 0,-0.164063 0.039062,-0.25 0.125,-0.25 h 17.125 c 0.257812,0 0.390625,0.121094 0.390625,0.359375 l 0.09375,5.375 c 0,0.05469 -0.07813,0.09375 -0.234375,0.125 -0.148438,0.02344 -0.230469,-0.0039 -0.25,-0.07813 -0.4375,-1.5625 -1.167969,-2.71875 -2.1875,-3.46875 -1.023438,-0.757813 -2.367188,-1.140625 -4.03125,-1.140625 h -1.21875 c -0.804688,0 -1.398438,0.179688 -1.78125,0.53125 C 9.1875,-23.1875 9,-22.648438 9,-21.921875 v 8.234375 h 3.359375 c 1.5625,0 2.757813,-0.265625 3.59375,-0.796875 0.832031,-0.539063 1.25,-1.296875 1.25,-2.265625 0,-0.08203 0.07031,-0.125 0.21875,-0.125 0.144531,0 0.21875,0.04297 0.21875,0.125 l -0.03125,3.625 0.03125,1.9375 c 0.05078,0.917969 0.07813,1.648438 0.07813,2.1875 0,0.054688 -0.08594,0.078125 -0.25,0.078125 -0.15625,0 -0.234375,-0.023437 -0.234375,-0.078125 0,-1.101562 -0.421875,-1.972656 -1.265625,-2.609375 C 15.125,-12.242188 13.90625,-12.5625 12.3125,-12.5625 H 9 v 9.125 c 0,0.78125 0.144531,1.367188 0.4375,1.75 0.300781,0.375 0.773438,0.5625 1.421875,0.5625 H 12.1875 c 2.101562,0 3.785156,-0.429688 5.046875,-1.296875 1.269531,-0.863281 2.203125,-2.195313 2.796875,-4 z m 0,0"
                 id="path44" />
            </g>
          </g>
        </g>
        <g
           fill="#000000"
           fill-opacity="1"
           id="g58">
          <g
             transform="translate(78.85573,36.733889)"
             id="g56">
            <g
               id="g54">
              <path
                 d="m 28.578125,-0.484375 c 0.0625,0 0.09375,0.085937 0.09375,0.25 C 28.671875,-0.078125 28.640625,0 28.578125,0 H 21.40625 c -0.59375,0 -1.699219,-1.066406 -3.3125,-3.203125 -1.617188,-2.144531 -3.570312,-5.140625 -5.859375,-8.984375 -0.21875,0.02344 -0.527344,0.03125 -0.921875,0.03125 -1.054688,0 -1.796875,-0.0078 -2.234375,-0.03125 v 8.921875 c 0,0.835937 0.066406,1.4375 0.203125,1.8125 0.132812,0.375 0.394531,0.632813 0.78125,0.765625 0.394531,0.136719 1.023438,0.203125 1.890625,0.203125 0.05078,0 0.07813,0.085937 0.07813,0.25 C 12.03125,-0.078125 12.003906,0 11.953125,0 11.066406,0 10.363281,-0.015625 9.84375,-0.046875 l -3.0625,-0.03125 -2.953125,0.03125 C 3.296875,-0.015625 2.570312,0 1.65625,0 c -0.085938,0 -0.125,-0.078125 -0.125,-0.234375 0,-0.164063 0.039062,-0.25 0.125,-0.25 0.863281,0 1.488281,-0.066406 1.875,-0.203125 0.394531,-0.132812 0.664062,-0.394531 0.8125,-0.78125 C 4.488281,-1.863281 4.5625,-2.460938 4.5625,-3.265625 V -21.96875 c 0,-0.800781 -0.070312,-1.390625 -0.203125,-1.765625 -0.136719,-0.382813 -0.40625,-0.648437 -0.8125,-0.796875 C 3.148438,-24.675781 2.535156,-24.75 1.703125,-24.75 c -0.0625,0 -0.09375,-0.07813 -0.09375,-0.234375 0,-0.164063 0.03125,-0.25 0.09375,-0.25 l 2.125,0.04687 c 1.238281,0.05469 2.222656,0.07813 2.953125,0.07813 0.914062,0 1.875,-0.03906 2.875,-0.125 0.34375,-0.03125 0.773438,-0.05469 1.296875,-0.07813 0.53125,-0.03125 1.117187,-0.04687 1.765625,-0.04687 2.445312,0 4.34375,0.453125 5.6875,1.359375 1.351562,0.898438 2.03125,2.152344 2.03125,3.765625 0,1.492187 -0.40625,2.835937 -1.21875,4.03125 -0.8125,1.199219 -1.890625,2.15625 -3.234375,2.875 2.15625,3.230469 3.957031,5.761719 5.40625,7.59375 1.457031,1.835937 2.75,3.167969 3.875,4 1.132813,0.835937 2.238281,1.25 3.3125,1.25 z m -19.5,-12.84375 c 0.644531,0.117187 1.425781,0.171875 2.34375,0.171875 1.5625,0 2.6875,-0.4375 3.375,-1.3125 0.6875,-0.875 1.03125,-2.28125 1.03125,-4.21875 0,-2.207031 -0.324219,-3.726562 -0.96875,-4.5625 -0.648437,-0.832031 -1.574219,-1.25 -2.78125,-1.25 -1.085937,0 -1.855469,0.203125 -2.3125,0.609375 -0.460937,0.398437 -0.6875,1.0625 -0.6875,2 z m 0,0"
                 id="path52" />
            </g>
          </g>
        </g>
        <g
           fill="#000000"
           fill-opacity="1"
           id="g66">
          <g
             transform="translate(107.36466,36.733889)"
             id="g64">
            <g
               id="g62">
              <path
                 d="m 17,0.484375 c -3.074219,0 -5.742188,-0.5703125 -8,-1.71875 -2.261719,-1.144531 -3.996094,-2.695313 -5.203125,-4.65625 -1.210937,-1.96875 -1.8125,-4.148437 -1.8125,-6.546875 0,-2.550781 0.675781,-4.835938 2.03125,-6.859375 C 5.378906,-21.316406 7.257812,-22.882812 9.65625,-24 c 2.394531,-1.113281 5.082031,-1.671875 8.0625,-1.671875 1.289062,0 2.582031,0.101563 3.875,0.296875 1.289062,0.199219 2.328125,0.460938 3.109375,0.78125 0.300781,0.117188 0.472656,0.210938 0.515625,0.28125 0.03906,0.0625 0.07031,0.28125 0.09375,0.65625 l 0.53125,5.609375 c 0,0.08594 -0.07813,0.140625 -0.234375,0.171875 -0.148437,0.02344 -0.230469,-0.01953 -0.25,-0.125 -0.355469,-0.894531 -0.921875,-1.863281 -1.703125,-2.90625 -0.78125,-1.050781 -1.808594,-1.96875 -3.078125,-2.75 -1.261719,-0.78125 -2.726563,-1.171875 -4.390625,-1.171875 -1.71875,0 -3.292969,0.476563 -4.71875,1.421875 -1.429688,0.9375 -2.554688,2.28125 -3.375,4.03125 -0.824219,1.75 -1.234375,3.78125 -1.234375,6.09375 0,2.53125 0.476563,4.792969 1.4375,6.78125 0.957031,1.992188 2.28125,3.539062 3.96875,4.640625 1.695313,1.105469 3.609375,1.65625 5.734375,1.65625 1.101562,0 1.953125,-0.117187 2.546875,-0.359375 0.59375,-0.238281 1.023437,-0.707031 1.296875,-1.40625 0.269531,-0.707031 0.40625,-1.75 0.40625,-3.125 0,-1.394531 -0.08594,-2.367188 -0.25,-2.921875 C 21.84375,-8.566406 21.5,-8.9375 20.96875,-9.125 c -0.523438,-0.1875 -1.445312,-0.28125 -2.765625,-0.28125 -0.15625,0 -0.234375,-0.109375 -0.234375,-0.328125 0,-0.070313 0.01953,-0.140625 0.0625,-0.203125 0.03906,-0.070312 0.08594,-0.109375 0.140625,-0.109375 2.28125,0.136719 4.132813,0.203125 5.5625,0.203125 1.375,0 2.800781,-0.039062 4.28125,-0.125 0.113281,0 0.175781,0.09375 0.1875,0.28125 0.0078,0.1875 -0.05469,0.28125 -0.1875,0.28125 -0.480469,-0.03125 -0.824219,0.058594 -1.03125,0.265625 -0.199219,0.199219 -0.324219,0.609375 -0.375,1.234375 -0.05469,0.617188 -0.07813,1.6875 -0.07813,3.21875 0,1.21875 0.04687,2.085938 0.140625,2.59375 0.09375,0.511719 0.140625,0.835938 0.140625,0.96875 0,0.15625 -0.03125,0.261719 -0.09375,0.3125 -0.05469,0.054688 -0.171875,0.109375 -0.359375,0.171875 -3.46875,0.75 -6.589844,1.125 -9.359375,1.125 z m 0,0"
                 id="path60" />
            </g>
          </g>
        </g>
        <g
           fill="#000000"
           fill-opacity="1"
           id="g74">
          <g
             transform="translate(139.10414,36.733889)"
             id="g72">
            <g
               id="g70">
              <path
                 d="m 28.578125,-0.484375 c 0.0625,0 0.09375,0.085937 0.09375,0.25 C 28.671875,-0.078125 28.640625,0 28.578125,0 H 21.40625 c -0.59375,0 -1.699219,-1.066406 -3.3125,-3.203125 -1.617188,-2.144531 -3.570312,-5.140625 -5.859375,-8.984375 -0.21875,0.02344 -0.527344,0.03125 -0.921875,0.03125 -1.054688,0 -1.796875,-0.0078 -2.234375,-0.03125 v 8.921875 c 0,0.835937 0.066406,1.4375 0.203125,1.8125 0.132812,0.375 0.394531,0.632813 0.78125,0.765625 0.394531,0.136719 1.023438,0.203125 1.890625,0.203125 0.05078,0 0.07813,0.085937 0.07813,0.25 C 12.03125,-0.078125 12.003906,0 11.953125,0 11.066406,0 10.363281,-0.015625 9.84375,-0.046875 l -3.0625,-0.03125 -2.953125,0.03125 C 3.296875,-0.015625 2.570312,0 1.65625,0 c -0.085938,0 -0.125,-0.078125 -0.125,-0.234375 0,-0.164063 0.039062,-0.25 0.125,-0.25 0.863281,0 1.488281,-0.066406 1.875,-0.203125 0.394531,-0.132812 0.664062,-0.394531 0.8125,-0.78125 C 4.488281,-1.863281 4.5625,-2.460938 4.5625,-3.265625 V -21.96875 c 0,-0.800781 -0.070312,-1.390625 -0.203125,-1.765625 -0.136719,-0.382813 -0.40625,-0.648437 -0.8125,-0.796875 C 3.148438,-24.675781 2.535156,-24.75 1.703125,-24.75 c -0.0625,0 -0.09375,-0.07813 -0.09375,-0.234375 0,-0.164063 0.03125,-0.25 0.09375,-0.25 l 2.125,0.04687 c 1.238281,0.05469 2.222656,0.07813 2.953125,0.07813 0.914062,0 1.875,-0.03906 2.875,-0.125 0.34375,-0.03125 0.773438,-0.05469 1.296875,-0.07813 0.53125,-0.03125 1.117187,-0.04687 1.765625,-0.04687 2.445312,0 4.34375,0.453125 5.6875,1.359375 1.351562,0.898438 2.03125,2.152344 2.03125,3.765625 0,1.492187 -0.40625,2.835937 -1.21875,4.03125 -0.8125,1.199219 -1.890625,2.15625 -3.234375,2.875 2.15625,3.230469 3.957031,5.761719 5.40625,7.59375 1.457031,1.835937 2.75,3.167969 3.875,4 1.132813,0.835937 2.238281,1.25 3.3125,1.25 z m -19.5,-12.84375 c 0.644531,0.117187 1.425781,0.171875 2.34375,0.171875 1.5625,0 2.6875,-0.4375 3.375,-1.3125 0.6875,-0.875 1.03125,-2.28125 1.03125,-4.21875 0,-2.207031 -0.324219,-3.726562 -0.96875,-4.5625 -0.648437,-0.832031 -1.574219,-1.25 -2.78125,-1.25 -1.085937,0 -1.855469,0.203125 -2.3125,0.609375 -0.460937,0.398437 -0.6875,1.0625 -0.6875,2 z m 0,0"
                 id="path68" />
            </g>
          </g>
        </g>
        <g
           fill="#000000"
           fill-opacity="1"
           id="g82">
          <g
             transform="translate(167.61308,36.733889)"
             id="g80">
            <g
               id="g78">
              <path
                 d="m 14.78125,0.484375 c -2.511719,0 -4.742188,-0.5820312 -6.6875,-1.75 C 6.144531,-2.441406 4.640625,-4.03125 3.578125,-6.03125 c -1.0625,-2.007812 -1.59375,-4.195312 -1.59375,-6.5625 0,-2.769531 0.695313,-5.144531 2.09375,-7.125 1.394531,-1.976562 3.191406,-3.460938 5.390625,-4.453125 2.195312,-1 4.4375,-1.5 6.71875,-1.5 2.5625,0 4.8125,0.601563 6.75,1.796875 1.9375,1.199219 3.421875,2.78125 4.453125,4.75 1.039063,1.960938 1.5625,4.042969 1.5625,6.25 0,2.449219 -0.648437,4.699219 -1.9375,6.75 -1.292969,2.042969 -3.023437,3.65625 -5.1875,4.84375 -2.167969,1.179688 -4.515625,1.765625 -7.046875,1.765625 z m 1.328125,-1.015625 c 1.507813,0 2.863281,-0.4375 4.0625,-1.3125 1.195313,-0.875 2.128906,-2.148438 2.796875,-3.828125 0.675781,-1.6875 1.015625,-3.695313 1.015625,-6.03125 0,-2.476563 -0.382813,-4.691406 -1.140625,-6.640625 -0.75,-1.957031 -1.839844,-3.488281 -3.265625,-4.59375 -1.429687,-1.101562 -3.09375,-1.65625 -5,-1.65625 -2.449219,0 -4.335937,0.921875 -5.65625,2.765625 -1.324219,1.84375 -1.984375,4.421875 -1.984375,7.734375 0,2.617188 0.394531,4.953125 1.1875,7.015625 0.800781,2.054687 1.894531,3.65625 3.28125,4.8125 1.382812,1.15625 2.953125,1.734375 4.703125,1.734375 z m 0,0"
                 id="path76" />
            </g>
          </g>
        </g>
        <g
           fill="#000000"
           fill-opacity="1"
           id="g90">
          <g
             transform="translate(199.83707,36.733889)"
             id="g88">
            <g
               id="g86">
              <path
                 d="m 26.84375,-25.234375 c 0.08203,0 0.125,0.08594 0.125,0.25 0,0.15625 -0.04297,0.234375 -0.125,0.234375 -0.96875,0 -1.898438,0.433594 -2.78125,1.296875 -0.886719,0.855469 -1.601562,2.011719 -2.140625,3.46875 l -7.46875,19.9375 C 14.421875,0.0664062 14.273438,0.125 14.015625,0.125 13.742188,0.125 13.59375,0.0664062 13.5625,-0.046875 L 3.265625,-21.890625 C 2.785156,-22.859375 2.300781,-23.578125 1.8125,-24.046875 1.332031,-24.515625 0.796875,-24.75 0.203125,-24.75 c -0.085937,0 -0.125,-0.07813 -0.125,-0.234375 0,-0.164063 0.039063,-0.25 0.125,-0.25 0.40625,0 0.6875,0.01563 0.84375,0.04687 0.539063,0.05469 1.242187,0.07813 2.109375,0.07813 2.3125,0 4.273438,-0.02344 5.890625,-0.07813 0.425781,-0.03125 0.960937,-0.04687 1.609375,-0.04687 0.08203,0 0.125,0.08594 0.125,0.25 0,0.15625 -0.04297,0.234375 -0.125,0.234375 -0.804688,0 -1.429688,0.171875 -1.875,0.515625 -0.449219,0.335937 -0.671875,0.808594 -0.671875,1.421875 0,0.460938 0.148437,1.011719 0.453125,1.65625 l 6.984375,14.890625 5.25,-13.84375 c 0.269531,-0.75 0.40625,-1.394531 0.40625,-1.9375 0,-0.832031 -0.25,-1.488281 -0.75,-1.96875 -0.5,-0.488281 -1.21875,-0.734375 -2.15625,-0.734375 -0.08594,0 -0.125,-0.07813 -0.125,-0.234375 0,-0.164063 0.03906,-0.25 0.125,-0.25 l 1.96875,0.04687 c 1.132813,0.05469 2.144531,0.07813 3.03125,0.07813 0.507813,0 1.140625,-0.02344 1.890625,-0.07813 z m 0,0"
                 id="path84" />
            </g>
          </g>
        </g>
        <g
           fill="#000000"
           fill-opacity="1"
           id="g98">
          <g
             transform="translate(228.70953,36.733889)"
             id="g96">
            <g
               id="g94">
              <path
                 d="m 20.03125,-6.421875 c 0,-0.050781 0.05078,-0.078125 0.15625,-0.078125 0.08203,0 0.15625,0.023438 0.21875,0.0625 0.07031,0.042969 0.109375,0.074219 0.109375,0.09375 -0.273437,2.105469 -0.40625,4.015625 -0.40625,5.734375 0,0.21875 -0.04297,0.375 -0.125,0.46875 C 19.898438,-0.046875 19.738281,0 19.5,0 H 1.65625 c -0.085938,0 -0.125,-0.078125 -0.125,-0.234375 0,-0.164063 0.039062,-0.25 0.125,-0.25 0.863281,0 1.488281,-0.066406 1.875,-0.203125 C 3.925781,-0.820312 4.1875,-1.082031 4.3125,-1.46875 4.445312,-1.863281 4.515625,-2.460938 4.515625,-3.265625 V -21.96875 c 0,-0.800781 -0.070313,-1.390625 -0.203125,-1.765625 C 4.1875,-24.117188 3.921875,-24.382812 3.515625,-24.53125 3.109375,-24.675781 2.488281,-24.75 1.65625,-24.75 c -0.085938,0 -0.125,-0.07813 -0.125,-0.234375 0,-0.164063 0.039062,-0.25 0.125,-0.25 h 17.125 c 0.257812,0 0.390625,0.121094 0.390625,0.359375 l 0.09375,5.375 c 0,0.05469 -0.07813,0.09375 -0.234375,0.125 -0.148438,0.02344 -0.230469,-0.0039 -0.25,-0.07813 -0.4375,-1.5625 -1.167969,-2.71875 -2.1875,-3.46875 -1.023438,-0.757813 -2.367188,-1.140625 -4.03125,-1.140625 h -1.21875 c -0.804688,0 -1.398438,0.179688 -1.78125,0.53125 C 9.1875,-23.1875 9,-22.648438 9,-21.921875 v 8.234375 h 3.359375 c 1.5625,0 2.757813,-0.265625 3.59375,-0.796875 0.832031,-0.539063 1.25,-1.296875 1.25,-2.265625 0,-0.08203 0.07031,-0.125 0.21875,-0.125 0.144531,0 0.21875,0.04297 0.21875,0.125 l -0.03125,3.625 0.03125,1.9375 c 0.05078,0.917969 0.07813,1.648438 0.07813,2.1875 0,0.054688 -0.08594,0.078125 -0.25,0.078125 -0.15625,0 -0.234375,-0.023437 -0.234375,-0.078125 0,-1.101562 -0.421875,-1.972656 -1.265625,-2.609375 C 15.125,-12.242188 13.90625,-12.5625 12.3125,-12.5625 H 9 v 9.125 c 0,0.78125 0.144531,1.367188 0.4375,1.75 0.300781,0.375 0.773438,0.5625 1.421875,0.5625 H 12.1875 c 2.101562,0 3.785156,-0.429688 5.046875,-1.296875 1.269531,-0.863281 2.203125,-2.195313 2.796875,-4 z m 0,0"
                 id="path92" />
            </g>
          </g>
        </g>
        <g
           fill="#000000"
           fill-opacity="1"
           id="g104">
          <g
             transform="translate(253.22086,36.733889)"
             id="g102">
            <g
               id="g100" />
          </g>
        </g>
        <g
           fill="#000000"
           fill-opacity="1"
           id="g112">
          <g
             transform="translate(264.89119,36.733889)"
             id="g110">
            <g
               id="g108">
              <path
                 d="m 17,0.484375 c -3.074219,0 -5.742188,-0.5703125 -8,-1.71875 -2.261719,-1.144531 -3.996094,-2.695313 -5.203125,-4.65625 -1.210937,-1.96875 -1.8125,-4.148437 -1.8125,-6.546875 0,-2.550781 0.675781,-4.835938 2.03125,-6.859375 C 5.378906,-21.316406 7.257812,-22.882812 9.65625,-24 c 2.394531,-1.113281 5.082031,-1.671875 8.0625,-1.671875 1.289062,0 2.582031,0.101563 3.875,0.296875 1.289062,0.199219 2.328125,0.460938 3.109375,0.78125 0.300781,0.117188 0.472656,0.210938 0.515625,0.28125 0.03906,0.0625 0.07031,0.28125 0.09375,0.65625 l 0.53125,5.609375 c 0,0.08594 -0.07813,0.140625 -0.234375,0.171875 -0.148437,0.02344 -0.230469,-0.01953 -0.25,-0.125 -0.355469,-0.894531 -0.921875,-1.863281 -1.703125,-2.90625 -0.78125,-1.050781 -1.808594,-1.96875 -3.078125,-2.75 -1.261719,-0.78125 -2.726563,-1.171875 -4.390625,-1.171875 -1.71875,0 -3.292969,0.476563 -4.71875,1.421875 -1.429688,0.9375 -2.554688,2.28125 -3.375,4.03125 -0.824219,1.75 -1.234375,3.78125 -1.234375,6.09375 0,2.53125 0.476563,4.792969 1.4375,6.78125 0.957031,1.992188 2.28125,3.539062 3.96875,4.640625 1.695313,1.105469 3.609375,1.65625 5.734375,1.65625 1.101562,0 1.953125,-0.117187 2.546875,-0.359375 0.59375,-0.238281 1.023437,-0.707031 1.296875,-1.40625 0.269531,-0.707031 0.40625,-1.75 0.40625,-3.125 0,-1.394531 -0.08594,-2.367188 -0.25,-2.921875 C 21.84375,-8.566406 21.5,-8.9375 20.96875,-9.125 c -0.523438,-0.1875 -1.445312,-0.28125 -2.765625,-0.28125 -0.15625,0 -0.234375,-0.109375 -0.234375,-0.328125 0,-0.070313 0.01953,-0.140625 0.0625,-0.203125 0.03906,-0.070312 0.08594,-0.109375 0.140625,-0.109375 2.28125,0.136719 4.132813,0.203125 5.5625,0.203125 1.375,0 2.800781,-0.039062 4.28125,-0.125 0.113281,0 0.175781,0.09375 0.1875,0.28125 0.0078,0.1875 -0.05469,0.28125 -0.1875,0.28125 -0.480469,-0.03125 -0.824219,0.058594 -1.03125,0.265625 -0.199219,0.199219 -0.324219,0.609375 -0.375,1.234375 -0.05469,0.617188 -0.07813,1.6875 -0.07813,3.21875 0,1.21875 0.04687,2.085938 0.140625,2.59375 0.09375,0.511719 0.140625,0.835938 0.140625,0.96875 0,0.15625 -0.03125,0.261719 -0.09375,0.3125 -0.05469,0.054688 -0.171875,0.109375 -0.359375,0.171875 -3.46875,0.75 -6.589844,1.125 -9.359375,1.125 z m 0,0"
                 id="path106" />
            </g>
          </g>
        </g>
        <g
           fill="#000000"
           fill-opacity="1"
           id="g120">
          <g
             transform="translate(296.63065,36.733889)"
             id="g118">
            <g
               id="g116">
              <path
                 d="m 8.59375,-3.4375 c 0,0.710938 0.050781,1.21875 0.15625,1.53125 0.113281,0.304688 0.320312,0.511719 0.625,0.625 0.3125,0.105469 0.820312,0.15625 1.53125,0.15625 h 1.375 c 2.09375,0 3.90625,-0.554688 5.4375,-1.671875 1.539062,-1.125 2.566406,-2.640625 3.078125,-4.546875 0,-0.050781 0.05078,-0.078125 0.15625,-0.078125 0.05078,0 0.109375,0.023437 0.171875,0.0625 0.07031,0.03125 0.109375,0.0625 0.109375,0.09375 -0.242187,2.667969 -0.359375,4.886719 -0.359375,6.65625 0,0.21875 -0.04687,0.375 -0.140625,0.46875 C 20.640625,-0.046875 20.484375,0 20.265625,0 H 1.21875 C 1.15625,0 1.125,-0.078125 1.125,-0.234375 c 0,-0.164063 0.03125,-0.25 0.09375,-0.25 0.851562,0 1.472656,-0.066406 1.859375,-0.203125 0.394531,-0.132812 0.664063,-0.394531 0.8125,-0.78125 C 4.046875,-1.863281 4.125,-2.460938 4.125,-3.265625 V -21.96875 c 0,-0.800781 -0.078125,-1.390625 -0.234375,-1.765625 C 3.742188,-24.117188 3.46875,-24.382812 3.0625,-24.53125 2.664062,-24.675781 2.050781,-24.75 1.21875,-24.75 c -0.0625,0 -0.09375,-0.07813 -0.09375,-0.234375 0,-0.164063 0.03125,-0.25 0.09375,-0.25 l 2.046875,0.04687 c 1.238281,0.05469 2.265625,0.07813 3.078125,0.07813 0.800781,0 1.820312,-0.02344 3.0625,-0.07813 l 2.0625,-0.04687 c 0.08203,0 0.125,0.08594 0.125,0.25 0,0.15625 -0.04297,0.234375 -0.125,0.234375 -0.835938,0 -1.453125,0.07422 -1.859375,0.21875 -0.40625,0.148438 -0.679687,0.417969 -0.8125,0.8125 -0.136719,0.386719 -0.203125,0.984375 -0.203125,1.796875 z m 0,0"
                 id="path114" />
            </g>
          </g>
        </g>
        <g
           fill="#000000"
           fill-opacity="1"
           id="g128">
          <g
             transform="translate(320.85937,36.733889)"
             id="g126">
            <g
               id="g124">
              <path
                 d="m 14.78125,0.484375 c -2.511719,0 -4.742188,-0.5820312 -6.6875,-1.75 C 6.144531,-2.441406 4.640625,-4.03125 3.578125,-6.03125 c -1.0625,-2.007812 -1.59375,-4.195312 -1.59375,-6.5625 0,-2.769531 0.695313,-5.144531 2.09375,-7.125 1.394531,-1.976562 3.191406,-3.460938 5.390625,-4.453125 2.195312,-1 4.4375,-1.5 6.71875,-1.5 2.5625,0 4.8125,0.601563 6.75,1.796875 1.9375,1.199219 3.421875,2.78125 4.453125,4.75 1.039063,1.960938 1.5625,4.042969 1.5625,6.25 0,2.449219 -0.648437,4.699219 -1.9375,6.75 -1.292969,2.042969 -3.023437,3.65625 -5.1875,4.84375 -2.167969,1.179688 -4.515625,1.765625 -7.046875,1.765625 z m 1.328125,-1.015625 c 1.507813,0 2.863281,-0.4375 4.0625,-1.3125 1.195313,-0.875 2.128906,-2.148438 2.796875,-3.828125 0.675781,-1.6875 1.015625,-3.695313 1.015625,-6.03125 0,-2.476563 -0.382813,-4.691406 -1.140625,-6.640625 -0.75,-1.957031 -1.839844,-3.488281 -3.265625,-4.59375 -1.429687,-1.101562 -3.09375,-1.65625 -5,-1.65625 -2.449219,0 -4.335937,0.921875 -5.65625,2.765625 -1.324219,1.84375 -1.984375,4.421875 -1.984375,7.734375 0,2.617188 0.394531,4.953125 1.1875,7.015625 0.800781,2.054687 1.894531,3.65625 3.28125,4.8125 1.382812,1.15625 2.953125,1.734375 4.703125,1.734375 z m 0,0"
                 id="path122" />
            </g>
          </g>
        </g>
        <g
           fill="#000000"
           fill-opacity="1"
           id="g136">
          <g
             transform="translate(354.01217,36.733889)"
             id="g134">
            <g
               id="g132">
              <path
                 d="m 14.53125,-14.171875 c 2.257812,0.273437 4.054688,1.027344 5.390625,2.265625 1.332031,1.242188 2,2.773438 2,4.59375 0,1.40625 -0.40625,2.679688 -1.21875,3.8125 -0.804687,1.125 -1.917969,2.015625 -3.34375,2.671875 -1.429687,0.65625 -3.015625,0.984375 -4.765625,0.984375 -0.75,0 -1.609375,-0.039062 -2.578125,-0.109375 C 9.640625,0.015625 9.175781,-0.0078125 8.625,-0.03125 8.070312,-0.0625 7.457031,-0.078125 6.78125,-0.078125 l -2.953125,0.03125 C 3.296875,-0.015625 2.570312,0 1.65625,0 c -0.085938,0 -0.125,-0.078125 -0.125,-0.234375 0,-0.164063 0.039062,-0.25 0.125,-0.25 0.78125,0 1.367188,-0.070313 1.765625,-0.21875 C 3.828125,-0.847656 4.117188,-1.113281 4.296875,-1.5 4.472656,-1.894531 4.5625,-2.484375 4.5625,-3.265625 V -21.96875 C 4.5625,-23.09375 4.375,-23.835938 4,-24.203125 3.625,-24.566406 2.859375,-24.75 1.703125,-24.75 c -0.0625,0 -0.09375,-0.07813 -0.09375,-0.234375 0,-0.164063 0.03125,-0.25 0.09375,-0.25 l 2.125,0.04687 c 1.238281,0.05469 2.222656,0.07813 2.953125,0.07813 0.75,0 1.53125,-0.03906 2.34375,-0.125 0.269531,-0.03125 0.671875,-0.05469 1.203125,-0.07813 0.539063,-0.03125 1.015625,-0.04687 1.421875,-0.04687 2.445312,0 4.34375,0.449219 5.6875,1.34375 1.34375,0.886719 2.015625,2.179687 2.015625,3.875 0,1.292969 -0.421875,2.464844 -1.265625,3.515625 -0.84375,1.042969 -2.0625,1.859375 -3.65625,2.453125 z M 11.140625,-24.46875 c -0.78125,0 -1.324219,0.183594 -1.625,0.546875 -0.292969,0.367187 -0.4375,1.042969 -0.4375,2.03125 v 7.671875 l 1.625,0.04687 c 1.394531,0 2.46875,-0.523437 3.21875,-1.578125 0.757813,-1.050781 1.140625,-2.394531 1.140625,-4.03125 0,-1.53125 -0.339844,-2.691406 -1.015625,-3.484375 -0.667969,-0.800781 -1.636719,-1.203125 -2.90625,-1.203125 z m 0.765625,23.625 c 3.53125,0 5.296875,-1.832031 5.296875,-5.5 0,-2.070312 -0.5,-3.710938 -1.5,-4.921875 -0.992187,-1.207031 -2.496094,-1.8125 -4.515625,-1.8125 -0.78125,0 -1.484375,0.02734 -2.109375,0.07813 v 9.734375 c 0,0.886719 0.175781,1.511719 0.53125,1.875 0.351563,0.367187 1.117187,0.546875 2.296875,0.546875 z m 0,0"
                 id="path130" />
            </g>
          </g>
        </g>
        <g
           fill="#000000"
           fill-opacity="1"
           id="g144">
          <g
             transform="translate(380.25986,36.733889)"
             id="g142">
            <g
               id="g140">
              <path
                 d="m 28.953125,-0.484375 c 0.132813,0 0.203125,0.085937 0.203125,0.25 C 29.15625,-0.078125 29.08594,0 28.953125,0 c -0.542969,0 -1.375,-0.0234375 -2.5,-0.078125 -1.1875,-0.050781 -2.039063,-0.078125 -2.546875,-0.078125 -0.679688,0 -1.5,0.027344 -2.46875,0.078125 C 20.519531,-0.0234375 19.796875,0 19.265625,0 19.148438,0 19.09375,-0.078125 19.09375,-0.234375 c 0,-0.164063 0.05469,-0.25 0.171875,-0.25 0.695313,0 1.195313,-0.070313 1.5,-0.21875 0.3125,-0.144531 0.46875,-0.410156 0.46875,-0.796875 0,-0.457031 -0.265625,-1.222656 -0.796875,-2.296875 L 17.6875,-9.25 H 7.75 l -1.578125,3.515625 c -0.34375,0.78125 -0.515625,1.511719 -0.515625,2.1875 0,0.96875 0.34375,1.726563 1.03125,2.265625 0.6875,0.53125 1.609375,0.796875 2.765625,0.796875 0.132813,0 0.203125,0.085937 0.203125,0.25 C 9.65625,-0.078125 9.585938,0 9.453125,0 8.960938,0 8.257812,-0.0234375 7.34375,-0.078125 6.320312,-0.128906 5.4375,-0.15625 4.6875,-0.15625 c -0.730469,0 -1.605469,0.027344 -2.625,0.078125 C 1.144531,-0.0234375 0.40625,0 -0.15625,0 c -0.113281,0 -0.171875,-0.078125 -0.171875,-0.234375 0,-0.164063 0.058594,-0.25 0.171875,-0.25 0.75,0 1.378906,-0.148437 1.890625,-0.453125 0.507813,-0.3125 1.019531,-0.863281 1.53125,-1.65625 0.507813,-0.800781 1.117187,-1.984375 1.828125,-3.546875 l 8.75,-19.25 c 0.05078,-0.08203 0.175781,-0.125 0.375,-0.125 0.207031,0 0.328125,0.04297 0.359375,0.125 l 10.09375,19.859375 c 0.9375,1.90625 1.710937,3.226562 2.328125,3.953125 0.625,0.730469 1.273438,1.09375 1.953125,1.09375 z M 8.28125,-10.375 h 8.796875 L 12.4375,-19.578125 Z m 0,0"
                 id="path138" />
            </g>
          </g>
        </g>
        <g
           fill="#000000"
           fill-opacity="1"
           id="g152">
          <g
             transform="translate(411.39361,36.733889)"
             id="g150">
            <g
               id="g148">
              <path
                 d="m 8.59375,-3.4375 c 0,0.710938 0.050781,1.21875 0.15625,1.53125 0.113281,0.304688 0.320312,0.511719 0.625,0.625 0.3125,0.105469 0.820312,0.15625 1.53125,0.15625 h 1.375 c 2.09375,0 3.90625,-0.554688 5.4375,-1.671875 1.539062,-1.125 2.566406,-2.640625 3.078125,-4.546875 0,-0.050781 0.05078,-0.078125 0.15625,-0.078125 0.05078,0 0.109375,0.023437 0.171875,0.0625 0.07031,0.03125 0.109375,0.0625 0.109375,0.09375 -0.242187,2.667969 -0.359375,4.886719 -0.359375,6.65625 0,0.21875 -0.04687,0.375 -0.140625,0.46875 C 20.640625,-0.046875 20.484375,0 20.265625,0 H 1.21875 C 1.15625,0 1.125,-0.078125 1.125,-0.234375 c 0,-0.164063 0.03125,-0.25 0.09375,-0.25 0.851562,0 1.472656,-0.066406 1.859375,-0.203125 0.394531,-0.132812 0.664063,-0.394531 0.8125,-0.78125 C 4.046875,-1.863281 4.125,-2.460938 4.125,-3.265625 V -21.96875 c 0,-0.800781 -0.078125,-1.390625 -0.234375,-1.765625 C 3.742188,-24.117188 3.46875,-24.382812 3.0625,-24.53125 2.664062,-24.675781 2.050781,-24.75 1.21875,-24.75 c -0.0625,0 -0.09375,-0.07813 -0.09375,-0.234375 0,-0.164063 0.03125,-0.25 0.09375,-0.25 l 2.046875,0.04687 c 1.238281,0.05469 2.265625,0.07813 3.078125,0.07813 0.800781,0 1.820312,-0.02344 3.0625,-0.07813 l 2.0625,-0.04687 c 0.08203,0 0.125,0.08594 0.125,0.25 0,0.15625 -0.04297,0.234375 -0.125,0.234375 -0.835938,0 -1.453125,0.07422 -1.859375,0.21875 -0.40625,0.148438 -0.679687,0.417969 -0.8125,0.8125 -0.136719,0.386719 -0.203125,0.984375 -0.203125,1.796875 z m 0,0"
                 id="path146" />
            </g>
          </g>
        </g>
      </g>
    </g>
    <g
       clip-path="url(#c903a77a9d)"
       id="g160"
       transform="translate(-27.125,-278.06201)">
      <path
         fill="#000000"
         d="m 90.378906,307.22266 2.984375,-2.21875 4.429688,-0.44532 0.660156,1.07813 0.894531,-0.29688 0.441406,-1.66406 1.324218,-0.0937 -0.55078,-1.57031 1.10547,-0.11328 1.10937,0.89062 0.77735,-1.11328 -0.66406,-1.88281 -2.992192,-0.44531 -0.550782,1.55078 -0.777344,-0.10547 v -1.44531 l -2.105468,-2.88282 -2.65625,-1.4414 -3.429688,-1.54688 2.4375,-5.4414 1.105469,0.66796 0.882813,-2.4375 2.105468,0.10938 0.546875,4.32422 0.777344,0.11328 3.214845,-3.4375 -0.66406,-1.77734 -3.328129,-0.66407 v -4.21484 l 8.312499,0.88672 4.3125,-2.55078 1.99219,1.88672 5.43359,-2.9961 2.98438,1.77344 -1.10547,1.66797 h 1.21875 l 0.33203,1.21875 -1.66016,0.21875 1.66016,1.33203 -0.55078,1.88281 -1.44141,0.33594 2.32422,1.88672 -3.65625,-1.77344 -1.98828,-1.11328 -3.21484,2 -2.54688,4.32422 v 3.8789 l -1.55078,2.88672 -2.54297,3.98828 -3.10547,1.10547 -1.32812,0.66797 -1.546878,1.9961 -1.082031,-0.16797 1.191407,1.94531 -0.996094,3.98828 -2.105469,1.88281 2.550781,10.32032 -0.890625,2.21875 -2.546875,0.66406 1.546875,-1.66797 -2.097656,-3.98828 -4.542969,-3.88281 -0.328125,-1.77344 -2.21875,-0.33594 -2.214843,-4.54297 3.875,-1.88281 z m 0,0"
         fill-opacity="1"
         fill-rule="nonzero"
         id="path158" />
    </g>
    <path
       fill="#000000"
       d="m 10.359375,29.941896 0.234375,1.88281 1.597656,-0.57813 -0.296875,-1.02343 1.742188,-0.14063 2.261719,2.10938 2.394531,0.86718 -0.585938,3.26953 0.222657,0.64844 -0.875,0.50781 -3.554688,-0.88281 -1.375,0.80078 -0.65625,-0.36328 -0.433594,1.32031 -1.8125,0.51172 -1.308594,-0.80468 -0.726562,-3.91407 1.960938,-1.96093 z m 0,0"
       fill-opacity="1"
       fill-rule="nonzero"
       id="path162" />
    <path
       fill="#000000"
       d="m 19.164062,28.121576 -1.886718,0.36328 -0.875,-2.6875 0.511718,-0.4414 2.539063,1.60156 z m 0,0"
       fill-opacity="1"
       fill-rule="nonzero"
       id="path164" />
    <path
       fill="#000000"
       d="m 8.207031,30.082516 0.648438,-1.38281 2.976562,-1.44922 1.523438,0.14453 -1.957031,2.03516 -1.125,0.0781 -0.472657,-0.44531 z m 0,0"
       fill-opacity="1"
       fill-rule="nonzero"
       id="path166" />
    <path
       fill="#000000"
       d="m 9.800781,10.895016 h 0.503907 l 0.07812,2.61719 1.304688,2.76172 1.667969,1.23828 0.07422,1.08594 -3.046876,-1.81641 -0.144531,-1.88672 -1.015625,-0.94531 0.792969,-0.65625 -0.429687,-1.52344 z m 0,0"
       fill-opacity="1"
       fill-rule="nonzero"
       id="path168" />
    <path
       fill="#000000"
       d="m 1.964844,37.277826 -0.222656,2.03516 2.25,2.10937 -1.453126,0.14454 -1.300781,-1.96485 -1.015625,-1.3789 0.652344,-0.07032 z m 0,0"
       fill-opacity="1"
       fill-rule="nonzero"
       id="path170" />
    <path
       fill="#000000"
       d="m 50.46875,6.695796 v 2.11328 l -1.464844,-0.64453 -0.414062,-0.64844 1.589844,-3.05859 0.933593,0.64844 -0.05859,0.82031 0.882812,1.06641 0.0625,1.11328 h -1.0625 z m 0,0"
       fill-opacity="1"
       fill-rule="nonzero"
       id="path172" />
    <path
       fill="#000000"
       d="m 37.195312,31.629396 0.05859,2.35546 -0.945312,0.41016 -0.9375,-2.82422 0.238281,-1.17578 z m 0,0"
       fill-opacity="1"
       fill-rule="nonzero"
       id="path174" />
    <g
       clip-path="url(#2d8020285d)"
       id="g178"
       transform="translate(-27.125,-278.06201)">
      <path
         fill="#000000"
         d="m 29.742188,284.59766 -2.617188,-1.45313 0.726562,-2.03516 19.253907,-2.71875 c 0,0 11.664062,1.23829 18.097656,1.91407 l 5.574219,-1.02735 2.238281,1.23438 0.878906,2.17578 1.058594,0.82422 0.05859,1.82422 -0.585938,0.35156 -1.234375,-0.70313 -0.59375,1.87891 -1.050781,-0.41016 -0.707031,-1.88671 0.707031,-0.76172 -0.648437,-1.41016 -0.757813,-0.94531 -0.46875,0.0742 0.4375,1.10547 0.496094,0.35546 -0.183594,0.44532 0.03516,0.0781 -0.06641,0.004 -0.429687,1.05469 -1.234376,-0.34766 -0.425781,0.5 1.367188,0.44141 -0.300781,1.12109 0.886718,-0.30078 0.644532,1.64844 2.292968,-0.0586 0.414063,-1.17578 0.527343,0.70703 -0.179687,0.76172 0.824219,0.0625 1,1.35156 1.820312,0.58985 -0.472656,1 -0.757812,1.23437 2.40625,-0.17578 -0.117188,2.35547 -1.882812,0.29297 -1.230469,-1.94531 -1.765625,-0.88282 -0.761719,0.88282 -1.054687,1.41796 -0.769532,-0.89062 1.472656,-0.99219 0.05859,-0.94531 -0.703125,0.35156 -1.179687,0.94531 0.05859,0.9375 -0.878907,1.1211 -0.410156,-1.41797 -0.472656,0.23828 -0.644531,1.12109 -1.988282,0.32813 0.320313,1.08984 0.75,0.44922 2.882812,-0.73828 0.726563,1.01563 1.886718,-1.23438 0.289063,-1.23047 4.644531,0.79688 2.398438,2.90625 0.4375,3.92187 -2.472656,2.40235 L 73.9375,303.92969 72.636719,308 l 0.503906,2.32422 -2.101563,5.08594 -2.398437,-0.4336 -2.390625,-4.50781 -1.304688,-1.01563 0.359376,-3.125 -2.324219,-2.10546 -0.726563,-2.54688 2.324219,1.08984 2.375,-5.4414 -0.484375,-0.082 -2.328125,4.57812 -4.5,-2.6875 1.527344,-1.16015 1.160156,0.57812 0.726563,-1.74609 -0.507813,-0.28516 -1.011719,0.86719 -3.492187,0.65625 -1.445313,1.74609 -1.308594,3.26563 -1.019531,-1.01172 v -1.23828 l -2.824219,-1.96485 -1.015624,2.1836 -0.84375,-0.21094 -0.171876,2.17187 -0.875,1.59766 1.886719,-0.94531 -1.378906,1.96094 -1.523437,1.45703 -3.628907,0.65234 1.957031,-0.79687 1.457032,-0.51172 0.503906,-2.32813 1.164062,-1.3125 -0.04297,-1.30859 -1.335938,1.38672 -1.308594,-1.08985 1.230469,-1.82031 -0.574219,-0.94141 -2.6875,-0.14843 -1.234374,-2.25 0.871093,-2.46485 -1.089843,-1.16406 -0.800782,1.08984 -0.292968,1.37891 -0.941407,-0.50391 0.363281,-1.52734 -0.796874,-1.16406 -1.308594,-0.21485 L 37.50781,287.7969 38.8125,286.85156 37,285.10547 34.601562,285.25 l -1.960937,-1.59375 -1.523437,-0.22266 2.46875,2.98438 -0.07422,2.61328 -1.886719,-2.32813 0.07422,-1.67187 z m 35.515624,8.67578 1.289063,-0.34766 1.765625,0.29297 0.410156,-0.76172 -0.9375,-1.64844 -3.058594,1.58985 z m -2.117187,1.0039 -0.289063,-1.12109 0.644532,-1.64063 -1.824219,-1 v 0.87891 l 0.707031,0.29297 -0.589844,0.88672 L 61.5,294.39844 Z m 0,0"
         fill-opacity="1"
         fill-rule="nonzero"
         id="path176" />
    </g>
    <g
       clip-path="url(#05132a524e)"
       id="g182"
       transform="translate(-27.125,-278.06201)">
      <path
         fill="#000000"
         d="m 87.816406,280.09766 1.632813,-0.44532 2.019531,2.16016 -2.597656,6.77734 -1.230469,0.30078 -0.09766,-2.19921 -0.832031,-0.51563 -0.04688,-0.83594 -0.855468,-1.61328 0.59375,-1.22656 z m 0,0"
         fill-opacity="1"
         fill-rule="nonzero"
         id="path180" />
    </g>
    <g
       transform="translate(166.875,37.937986)"
       id="g368">
      <g
         clip-path="url(#4a075cc530)"
         id="g366">
        <g
           fill="#000000"
           fill-opacity="1"
           id="g190">
          <g
             transform="translate(1.086447,12.278208)"
             id="g188">
            <g
               id="g186">
              <path
                 d="m 7.59375,-7.46875 c 0,-0.351562 -0.085938,-0.671875 -0.25,-0.953125 C 7.1875,-8.710938 6.96875,-8.953125 6.6875,-9.140625 6.414062,-9.328125 6.097656,-9.46875 5.734375,-9.5625 5.378906,-9.664062 5.007812,-9.71875 4.625,-9.71875 H 0.421875 v 0.234375 H 1.65625 v 9.25 H 0.421875 V 0 H 4.75 c 1,0 1.773438,-0.226562 2.328125,-0.6875 0.5625,-0.46875 0.84375,-1.113281 0.84375,-1.9375 0,-0.414062 -0.089844,-0.78125 -0.265625,-1.09375 -0.167969,-0.320312 -0.375,-0.59375 -0.625,-0.8125 -0.25,-0.226562 -0.527344,-0.398438 -0.828125,-0.515625 -0.304687,-0.125 -0.585937,-0.203125 -0.84375,-0.234375 0.3125,-0.0625 0.601563,-0.144531 0.875,-0.25 0.28125,-0.113281 0.519531,-0.257812 0.71875,-0.4375 0.195313,-0.175781 0.351563,-0.382812 0.46875,-0.625 0.113281,-0.25 0.171875,-0.539062 0.171875,-0.875 z M 3.0625,-5.375 V -9.484375 H 4.625 c 0.238281,0 0.457031,0.03125 0.65625,0.09375 0.195312,0.0625 0.359375,0.167969 0.484375,0.3125 0.132813,0.148437 0.238281,0.34375 0.3125,0.59375 0.082031,0.25 0.125,0.554687 0.125,0.90625 v 0.234375 c 0,0.386719 -0.042969,0.710938 -0.125,0.96875 -0.074219,0.25 -0.179687,0.449219 -0.3125,0.59375 -0.125,0.148438 -0.289063,0.25 -0.484375,0.3125 C 5.082031,-5.40625 4.863281,-5.375 4.625,-5.375 Z m 0,5.140625 v -4.90625 H 4.625 c 0.664062,0 1.140625,0.203125 1.421875,0.609375 0.289063,0.40625 0.4375,0.984375 0.4375,1.734375 V -2.4375 c 0,0.699219 -0.136719,1.242188 -0.40625,1.625 C 5.804688,-0.425781 5.320312,-0.234375 4.625,-0.234375 Z m 0,0"
                 id="path184" />
            </g>
          </g>
        </g>
        <g
           fill="#000000"
           fill-opacity="1"
           id="g198">
          <g
             transform="translate(16.098596,12.278208)"
             id="g196">
            <g
               id="g194">
              <path
                 d="m 3.125,-5 h 1.140625 c 0.21875,0 0.390625,0.03125 0.515625,0.09375 0.125,0.0625 0.222656,0.152344 0.296875,0.265625 0.070313,0.117187 0.125,0.257813 0.15625,0.421875 0.039063,0.15625 0.082031,0.339844 0.125,0.546875 0.019531,0.136719 0.054687,0.203125 0.109375,0.203125 0.0625,0 0.09375,-0.0625 0.09375,-0.1875 v -2.9375 c 0,-0.113281 -0.03125,-0.171875 -0.09375,-0.171875 -0.054688,0 -0.089844,0.070313 -0.109375,0.203125 -0.042969,0.199219 -0.085937,0.382812 -0.125,0.546875 -0.03125,0.167969 -0.085937,0.308594 -0.15625,0.421875 -0.074219,0.117188 -0.171875,0.203125 -0.296875,0.265625 -0.125,0.0625 -0.296875,0.09375 -0.515625,0.09375 H 3.125 v -4.25 h 2.203125 c 0.320313,0 0.59375,0.078125 0.8125,0.234375 0.226563,0.15625 0.410156,0.355469 0.546875,0.59375 0.132812,0.230469 0.234375,0.480469 0.296875,0.75 0.0625,0.261719 0.097656,0.5 0.109375,0.71875 0,0.136719 0.035156,0.203125 0.109375,0.203125 0.070313,0 0.109375,-0.0625 0.109375,-0.1875 V -9.375 c 0,-0.226562 -0.125,-0.34375 -0.375,-0.34375 H 0.484375 v 0.234375 H 1.71875 v 9.25 H 0.484375 V 0 h 6.8125 C 7.578125,0 7.71875,-0.15625 7.71875,-0.46875 v -2.171875 c 0,-0.226563 -0.042969,-0.34375 -0.125,-0.34375 -0.0625,0 -0.117188,0.105469 -0.15625,0.3125 -0.074219,0.367187 -0.15625,0.699219 -0.25,1 -0.085938,0.292969 -0.199219,0.546875 -0.34375,0.765625 -0.148438,0.21875 -0.328125,0.386719 -0.546875,0.5 -0.21875,0.117188 -0.5,0.171875 -0.84375,0.171875 H 3.125 Z m 0,0"
                 id="path192" />
            </g>
          </g>
        </g>
        <g
           fill="#000000"
           fill-opacity="1"
           id="g206">
          <g
             transform="translate(30.763337,12.278208)"
             id="g204">
            <g
               id="g202">
              <path
                 d="M 0.3125,-0.234375 V 0 H 3.53125 V -0.234375 H 1.828125 l 0.90625,-2.796875 h 2.90625 l 0.9375,2.796875 H 5.09375 V 0 h 4.234375 v -0.234375 h -1.25 l -3.171875,-9.625 H 4.734375 l -3.171875,9.625 z M 4.1875,-7.390625 5.578125,-3.25 h -2.75 z m 0,0"
                 id="path200" />
            </g>
          </g>
        </g>
        <g
           fill="#000000"
           fill-opacity="1"
           id="g214">
          <g
             transform="translate(46.687424,12.278208)"
             id="g212">
            <g
               id="g210">
              <path
                 d="M 4.203125,-9.71875 H 0.3125 v 0.234375 h 1.25 v 7.0625 c 0,0.511719 0.097656,0.9375 0.296875,1.28125 0.195313,0.34375 0.453125,0.625 0.765625,0.84375 0.3125,0.2109375 0.660156,0.3515625 1.046875,0.4375 C 4.054688,0.234375 4.4375,0.28125 4.8125,0.28125 c 0.914062,0 1.628906,-0.2265625 2.140625,-0.671875 0.507813,-0.457031 0.765625,-1.132813 0.765625,-2.03125 v -7.0625 h 1.25 V -9.71875 H 6.25 v 0.234375 H 7.5 v 7.0625 c 0,0.386719 -0.0625,0.734375 -0.1875,1.046875 -0.117188,0.304688 -0.28125,0.558594 -0.5,0.765625 -0.210938,0.210937 -0.460938,0.367187 -0.75,0.46875 -0.28125,0.1054688 -0.585938,0.15625 -0.90625,0.15625 -0.679688,0 -1.214844,-0.207031 -1.609375,-0.625 -0.386719,-0.425781 -0.578125,-1.03125 -0.578125,-1.8125 v -7.0625 h 1.234375 z m 0,0"
                 id="path208" />
            </g>
          </g>
        </g>
        <g
           fill="#000000"
           fill-opacity="1"
           id="g222">
          <g
             transform="translate(62.27858,12.278208)"
             id="g220">
            <g
               id="g218">
              <path
                 d="m 5.21875,-0.234375 v -9.25 h 1.25 c 0.445312,0 0.832031,0.230469 1.15625,0.6875 0.332031,0.449219 0.554688,1.0625 0.671875,1.84375 H 8.59375 L 8.375,-9.484375 C 8.363281,-9.640625 8.269531,-9.71875 8.09375,-9.71875 H 0.953125 c -0.179687,0 -0.273437,0.078125 -0.28125,0.234375 l -0.21875,2.53125 H 0.75 c 0.101562,-0.78125 0.320312,-1.394531 0.65625,-1.84375 0.332031,-0.457031 0.722656,-0.6875 1.171875,-0.6875 H 3.8125 v 9.25 H 2.578125 V 0 H 6.46875 v -0.234375 z m 0,0"
                 id="path216" />
            </g>
          </g>
        </g>
        <g
           fill="#000000"
           fill-opacity="1"
           id="g230">
          <g
             transform="translate(77.594708,12.278208)"
             id="g228">
            <g
               id="g226">
              <path
                 d="M 4.515625,-9.484375 V -9.71875 H 0.625 v 0.234375 h 1.234375 v 9.25 H 0.625 V 0 h 3.890625 v -0.234375 h -1.25 v -9.25 z m 0,0"
                 id="path224" />
            </g>
          </g>
        </g>
        <g
           fill="#000000"
           fill-opacity="1"
           id="g238">
          <g
             transform="translate(89.089378,12.278208)"
             id="g236">
            <g
               id="g234">
              <path
                 d="m 0.53125,-9.484375 h 1.25 v 9.25 H 0.5625 V 0 H 4.421875 V -0.234375 H 3.1875 V -5 h 1.140625 c 0.207031,0 0.375,0.03125 0.5,0.09375 0.125,0.0625 0.222656,0.152344 0.296875,0.265625 0.070312,0.117187 0.128906,0.257813 0.171875,0.421875 0.039063,0.15625 0.078125,0.339844 0.109375,0.546875 0.03125,0.136719 0.070312,0.203125 0.125,0.203125 0.050781,0 0.078125,-0.0625 0.078125,-0.1875 v -2.9375 c 0,-0.113281 -0.027344,-0.171875 -0.078125,-0.171875 -0.054688,0 -0.09375,0.070313 -0.125,0.203125 C 5.375,-6.363281 5.335938,-6.179688 5.296875,-6.015625 5.253906,-5.847656 5.195312,-5.707031 5.125,-5.59375 c -0.074219,0.117188 -0.171875,0.203125 -0.296875,0.265625 -0.125,0.0625 -0.292969,0.09375 -0.5,0.09375 H 3.1875 v -4.25 H 5.375 c 0.332031,0 0.609375,0.078125 0.828125,0.234375 0.226563,0.15625 0.40625,0.355469 0.53125,0.59375 0.132813,0.230469 0.234375,0.480469 0.296875,0.75 0.070312,0.261719 0.109375,0.5 0.109375,0.71875 0,0.136719 0.039063,0.203125 0.125,0.203125 0.0625,0 0.09375,-0.0625 0.09375,-0.1875 V -9.375 C 7.359375,-9.601562 7.238281,-9.71875 7,-9.71875 H 0.53125 Z m 0,0"
                 id="path232" />
            </g>
          </g>
        </g>
        <g
           fill="#000000"
           fill-opacity="1"
           id="g246">
          <g
             transform="translate(103.37777,12.278208)"
             id="g244">
            <g
               id="g242">
              <path
                 d="M 4.203125,-9.71875 H 0.3125 v 0.234375 h 1.25 v 7.0625 c 0,0.511719 0.097656,0.9375 0.296875,1.28125 0.195313,0.34375 0.453125,0.625 0.765625,0.84375 0.3125,0.2109375 0.660156,0.3515625 1.046875,0.4375 C 4.054688,0.234375 4.4375,0.28125 4.8125,0.28125 c 0.914062,0 1.628906,-0.2265625 2.140625,-0.671875 0.507813,-0.457031 0.765625,-1.132813 0.765625,-2.03125 v -7.0625 h 1.25 V -9.71875 H 6.25 v 0.234375 H 7.5 v 7.0625 c 0,0.386719 -0.0625,0.734375 -0.1875,1.046875 -0.117188,0.304688 -0.28125,0.558594 -0.5,0.765625 -0.210938,0.210937 -0.460938,0.367187 -0.75,0.46875 -0.28125,0.1054688 -0.585938,0.15625 -0.90625,0.15625 -0.679688,0 -1.214844,-0.207031 -1.609375,-0.625 -0.386719,-0.425781 -0.578125,-1.03125 -0.578125,-1.8125 v -7.0625 h 1.234375 z m 0,0"
                 id="path240" />
            </g>
          </g>
        </g>
        <g
           fill="#000000"
           fill-opacity="1"
           id="g254">
          <g
             transform="translate(118.96892,12.278208)"
             id="g252">
            <g
               id="g250">
              <path
                 d="m 8.03125,-2.671875 c -0.074219,0.367187 -0.15625,0.699219 -0.25,1 C 7.695312,-1.378906 7.582031,-1.125 7.4375,-0.90625 c -0.148438,0.21875 -0.335938,0.386719 -0.5625,0.5 -0.21875,0.117188 -0.496094,0.171875 -0.828125,0.171875 h -2.96875 v -9.25 h 1.375 V -9.71875 H 0.4375 v 0.234375 h 1.234375 v 9.25 H 0.4375 V 0 H 7.890625 C 8.171875,0 8.3125,-0.15625 8.3125,-0.46875 v -2.171875 c 0,-0.226563 -0.042969,-0.34375 -0.125,-0.34375 -0.0625,0 -0.117188,0.105469 -0.15625,0.3125 z m 0,0"
                 id="path248" />
            </g>
          </g>
        </g>
        <g
           fill="#000000"
           fill-opacity="1"
           id="g262">
          <g
             transform="translate(133.99555,12.278208)"
             id="g260">
            <g
               id="g258">
              <path
                 d="m 8.03125,-2.671875 c -0.074219,0.367187 -0.15625,0.699219 -0.25,1 C 7.695312,-1.378906 7.582031,-1.125 7.4375,-0.90625 c -0.148438,0.21875 -0.335938,0.386719 -0.5625,0.5 -0.21875,0.117188 -0.496094,0.171875 -0.828125,0.171875 h -2.96875 v -9.25 h 1.375 V -9.71875 H 0.4375 v 0.234375 h 1.234375 v 9.25 H 0.4375 V 0 H 7.890625 C 8.171875,0 8.3125,-0.15625 8.3125,-0.46875 v -2.171875 c 0,-0.226563 -0.042969,-0.34375 -0.125,-0.34375 -0.0625,0 -0.117188,0.105469 -0.15625,0.3125 z m 0,0"
                 id="path256" />
            </g>
          </g>
        </g>
        <g
           fill="#000000"
           fill-opacity="1"
           id="g270">
          <g
             transform="translate(149.02217,12.278208)"
             id="g268">
            <g
               id="g266">
              <path
                 d="M 4.5,-9.71875 H 0.46875 v 0.234375 H 1.625 l 2.796875,4.703125 v 4.546875 H 3.03125 V 0 h 4.1875 V -0.234375 H 5.828125 V -5.15625 L 8.21875,-9.484375 H 9.390625 V -9.71875 H 6.4375 v 0.234375 h 1.40625 l -2.25,4.078125 -2.421875,-4.078125 H 4.5 Z m 0,0"
                 id="path264" />
            </g>
          </g>
        </g>
        <g
           fill="#000000"
           fill-opacity="1"
           id="g276">
          <g
             transform="translate(164.96074,12.278208)"
             id="g274">
            <g
               id="g272" />
          </g>
        </g>
        <g
           fill="#000000"
           fill-opacity="1"
           id="g284">
          <g
             transform="translate(175.21054,12.278208)"
             id="g282">
            <g
               id="g280">
              <path
                 d="M 4.734375,-9.71875 H 0.46875 v 0.234375 h 1.265625 v 9.25 H 0.46875 V 0 h 4.265625 c 0.675781,0 1.289063,-0.113281 1.84375,-0.34375 0.5625,-0.238281 1.039063,-0.578125 1.4375,-1.015625 0.394531,-0.4375 0.703125,-0.957031 0.921875,-1.5625 0.21875,-0.613281 0.328125,-1.300781 0.328125,-2.0625 0,-0.695313 -0.117187,-1.335937 -0.34375,-1.921875 -0.21875,-0.582031 -0.53125,-1.082031 -0.9375,-1.5 C 7.585938,-8.832031 7.113281,-9.15625 6.5625,-9.375 6.007812,-9.601562 5.398438,-9.71875 4.734375,-9.71875 Z m 2.9375,4.375 v 0.734375 c 0,0.855469 -0.085937,1.5625 -0.25,2.125 -0.15625,0.5625 -0.371094,1.011719 -0.640625,1.34375 -0.273438,0.335937 -0.585938,0.570313 -0.9375,0.703125 -0.355469,0.136719 -0.734375,0.203125 -1.140625,0.203125 h -1.5625 v -9.25 h 1.5625 c 0.394531,0 0.769531,0.070313 1.125,0.203125 0.351563,0.136719 0.664063,0.367188 0.9375,0.6875 0.28125,0.324219 0.5,0.75 0.65625,1.28125 0.164063,0.53125 0.25,1.1875 0.25,1.96875 z m 0,0"
                 id="path278" />
            </g>
          </g>
        </g>
        <g
           fill="#000000"
           fill-opacity="1"
           id="g292">
          <g
             transform="translate(191.14909,12.278208)"
             id="g290">
            <g
               id="g288">
              <path
                 d="M 4.515625,-9.484375 V -9.71875 H 0.625 v 0.234375 h 1.234375 v 9.25 H 0.625 V 0 h 3.890625 v -0.234375 h -1.25 v -9.25 z m 0,0"
                 id="path286" />
            </g>
          </g>
        </g>
        <g
           fill="#000000"
           fill-opacity="1"
           id="g300">
          <g
             transform="translate(202.64377,12.278208)"
             id="g298">
            <g
               id="g296">
              <path
                 d="M 6.53125,-9.828125 6.109375,-9.28125 c -0.179687,-0.101562 -0.34375,-0.191406 -0.5,-0.265625 -0.15625,-0.082031 -0.3125,-0.144531 -0.46875,-0.1875 -0.15625,-0.050781 -0.324219,-0.085937 -0.5,-0.109375 C 4.460938,-9.863281 4.253906,-9.875 4.015625,-9.875 3.546875,-9.875 3.125,-9.796875 2.75,-9.640625 2.382812,-9.492188 2.070312,-9.289062 1.8125,-9.03125 1.550781,-8.769531 1.351562,-8.46875 1.21875,-8.125 c -0.136719,0.335938 -0.203125,0.6875 -0.203125,1.0625 0,0.511719 0.15625,0.980469 0.46875,1.40625 0.3125,0.429688 0.800781,0.75 1.46875,0.96875 0.3125,0.105469 0.578125,0.195312 0.796875,0.265625 0.226562,0.0625 0.4375,0.125 0.625,0.1875 0.195312,0.0625 0.394531,0.132813 0.59375,0.203125 0.195312,0.074219 0.425781,0.171875 0.6875,0.296875 0.332031,0.15625 0.554688,0.375 0.671875,0.65625 C 6.441406,-2.804688 6.5,-2.53125 6.5,-2.25 c 0,0.34375 -0.070312,0.664062 -0.203125,0.953125 -0.136719,0.28125 -0.320313,0.523437 -0.546875,0.71875 -0.21875,0.1875 -0.476562,0.335937 -0.765625,0.4375 -0.28125,0.1054688 -0.574219,0.15625 -0.875,0.15625 -0.34375,0 -0.679687,-0.0546875 -1,-0.171875 -0.3125,-0.125 -0.605469,-0.296875 -0.875,-0.515625 C 1.960938,-0.898438 1.726562,-1.175781 1.53125,-1.5 1.332031,-1.832031 1.179688,-2.203125 1.078125,-2.609375 c -0.03125,-0.125 -0.089844,-0.1875 -0.171875,-0.1875 -0.0625,0 -0.09375,0.070313 -0.09375,0.203125 V 0 c 0,0.125 0.039062,0.1875 0.125,0.1875 0.0625,0 0.125,-0.046875 0.1875,-0.140625 l 0.53125,-0.75 c 0.113281,0.105469 0.253906,0.214844 0.421875,0.328125 0.164063,0.117188 0.351563,0.226562 0.5625,0.328125 C 2.847656,0.046875 3.066406,0.125 3.296875,0.1875 3.535156,0.25 3.78125,0.28125 4.03125,0.28125 4.5,0.28125 4.929688,0.191406 5.328125,0.015625 5.722656,-0.148438 6.0625,-0.378906 6.34375,-0.671875 c 0.289062,-0.300781 0.519531,-0.65625 0.6875,-1.0625 0.175781,-0.414063 0.265625,-0.859375 0.265625,-1.328125 0,-0.644531 -0.15625,-1.191406 -0.46875,-1.640625 -0.304687,-0.445313 -0.78125,-0.769531 -1.4375,-0.96875 -0.21875,-0.0625 -0.429687,-0.117187 -0.625,-0.171875 C 4.578125,-5.894531 4.378906,-5.945312 4.171875,-6 3.972656,-6.0625 3.765625,-6.128906 3.546875,-6.203125 3.328125,-6.273438 3.082031,-6.363281 2.8125,-6.46875 2.507812,-6.582031 2.28125,-6.757812 2.125,-7 1.96875,-7.238281 1.890625,-7.519531 1.890625,-7.84375 c 0,-0.300781 0.0625,-0.5625 0.1875,-0.78125 0.125,-0.226562 0.285156,-0.414062 0.484375,-0.5625 C 2.757812,-9.332031 2.984375,-9.441406 3.234375,-9.515625 3.492188,-9.585938 3.753906,-9.625 4.015625,-9.625 c 0.394531,0 0.742187,0.070312 1.046875,0.203125 0.300781,0.136719 0.550781,0.320313 0.75,0.546875 0.207031,0.21875 0.367188,0.476562 0.484375,0.765625 0.125,0.28125 0.207031,0.578125 0.25,0.890625 0,0.09375 0.039063,0.140625 0.125,0.140625 0.0625,0 0.09375,-0.046875 0.09375,-0.140625 v -2.578125 c 0,-0.09375 -0.027344,-0.140625 -0.078125,-0.140625 -0.054688,0 -0.105469,0.039062 -0.15625,0.109375 z m 0,0"
                 id="path294" />
            </g>
          </g>
        </g>
        <g
           fill="#000000"
           fill-opacity="1"
           id="g308">
          <g
             transform="translate(216.84529,12.278208)"
             id="g306">
            <g
               id="g304">
              <path
                 d="m 5.21875,-0.234375 v -9.25 h 1.25 c 0.445312,0 0.832031,0.230469 1.15625,0.6875 0.332031,0.449219 0.554688,1.0625 0.671875,1.84375 H 8.59375 L 8.375,-9.484375 C 8.363281,-9.640625 8.269531,-9.71875 8.09375,-9.71875 H 0.953125 c -0.179687,0 -0.273437,0.078125 -0.28125,0.234375 l -0.21875,2.53125 H 0.75 c 0.101562,-0.78125 0.320312,-1.394531 0.65625,-1.84375 0.332031,-0.457031 0.722656,-0.6875 1.171875,-0.6875 H 3.8125 v 9.25 H 2.578125 V 0 H 6.46875 v -0.234375 z m 0,0"
                 id="path302" />
            </g>
          </g>
        </g>
        <g
           fill="#000000"
           fill-opacity="1"
           id="g316">
          <g
             transform="translate(232.16144,12.278208)"
             id="g314">
            <g
               id="g312">
              <path
                 d="M 7.640625,-0.625 C 7.609375,-0.71875 7.582031,-0.847656 7.5625,-1.015625 7.550781,-1.191406 7.539062,-1.378906 7.53125,-1.578125 c 0,-0.207031 0,-0.414063 0,-0.625 0,-0.21875 -0.015625,-0.425781 -0.046875,-0.625 C 7.421875,-3.210938 7.320312,-3.53125 7.1875,-3.78125 c -0.136719,-0.25 -0.304688,-0.453125 -0.5,-0.609375 -0.1875,-0.15625 -0.40625,-0.28125 -0.65625,-0.375 -0.25,-0.09375 -0.523438,-0.175781 -0.8125,-0.25 C 5.976562,-5.148438 6.554688,-5.414062 6.953125,-5.8125 7.359375,-6.21875 7.5625,-6.722656 7.5625,-7.328125 7.5625,-7.710938 7.484375,-8.050781 7.328125,-8.34375 7.171875,-8.644531 6.957031,-8.894531 6.6875,-9.09375 6.414062,-9.300781 6.09375,-9.457031 5.71875,-9.5625 5.351562,-9.664062 4.960938,-9.71875 4.546875,-9.71875 H 0.46875 v 0.234375 h 1.234375 v 9.25 H 0.46875 V 0 h 3.890625 v -0.234375 h -1.25 V -4.96875 H 4.3125 c 0.15625,0 0.316406,0.03125 0.484375,0.09375 0.175781,0.054688 0.335937,0.152344 0.484375,0.296875 0.15625,0.148437 0.285156,0.355469 0.390625,0.625 0.113281,0.261719 0.195313,0.601563 0.25,1.015625 0.03125,0.25 0.046875,0.507812 0.046875,0.765625 0,0.261719 0.00781,0.511719 0.03125,0.75 0.03125,0.242187 0.078125,0.464844 0.140625,0.671875 0.0625,0.199219 0.160156,0.371094 0.296875,0.515625 0.125,0.1367188 0.269531,0.2265625 0.4375,0.265625 0.175781,0.0507812 0.359375,0.078125 0.546875,0.078125 0.164063,0 0.328125,-0.015625 0.484375,-0.046875 0.164062,-0.03125 0.316406,-0.06640625 0.453125,-0.109375 0.144531,-0.0507812 0.269531,-0.101563 0.375,-0.15625 0.101563,-0.0625 0.175781,-0.113281 0.21875,-0.15625 C 8.984375,-0.390625 9,-0.421875 9,-0.453125 c 0,-0.019531 -0.015625,-0.03125 -0.046875,-0.03125 -0.023437,0 -0.046875,0.007813 -0.078125,0.015625 -0.199219,0.136719 -0.417969,0.203125 -0.65625,0.203125 -0.304688,0 -0.496094,-0.117187 -0.578125,-0.359375 z m -4.53125,-4.5625 v -4.296875 h 1.4375 c 1.09375,0 1.640625,0.632813 1.640625,1.890625 v 0.515625 c 0,1.261719 -0.546875,1.890625 -1.640625,1.890625 z m 0,0"
                 id="path310" />
            </g>
          </g>
        </g>
        <g
           fill="#000000"
           fill-opacity="1"
           id="g324">
          <g
             transform="translate(247.60784,12.278208)"
             id="g322">
            <g
               id="g320">
              <path
                 d="M 4.515625,-9.484375 V -9.71875 H 0.625 v 0.234375 h 1.234375 v 9.25 H 0.625 V 0 h 3.890625 v -0.234375 h -1.25 v -9.25 z m 0,0"
                 id="path318" />
            </g>
          </g>
        </g>
        <g
           fill="#000000"
           fill-opacity="1"
           id="g332">
          <g
             transform="translate(259.10251,12.278208)"
             id="g330">
            <g
               id="g328">
              <path
                 d="m 7.59375,-7.46875 c 0,-0.351562 -0.085938,-0.671875 -0.25,-0.953125 C 7.1875,-8.710938 6.96875,-8.953125 6.6875,-9.140625 6.414062,-9.328125 6.097656,-9.46875 5.734375,-9.5625 5.378906,-9.664062 5.007812,-9.71875 4.625,-9.71875 H 0.421875 v 0.234375 H 1.65625 v 9.25 H 0.421875 V 0 H 4.75 c 1,0 1.773438,-0.226562 2.328125,-0.6875 0.5625,-0.46875 0.84375,-1.113281 0.84375,-1.9375 0,-0.414062 -0.089844,-0.78125 -0.265625,-1.09375 -0.167969,-0.320312 -0.375,-0.59375 -0.625,-0.8125 -0.25,-0.226562 -0.527344,-0.398438 -0.828125,-0.515625 -0.304687,-0.125 -0.585937,-0.203125 -0.84375,-0.234375 0.3125,-0.0625 0.601563,-0.144531 0.875,-0.25 0.28125,-0.113281 0.519531,-0.257812 0.71875,-0.4375 0.195313,-0.175781 0.351563,-0.382812 0.46875,-0.625 0.113281,-0.25 0.171875,-0.539062 0.171875,-0.875 z M 3.0625,-5.375 V -9.484375 H 4.625 c 0.238281,0 0.457031,0.03125 0.65625,0.09375 0.195312,0.0625 0.359375,0.167969 0.484375,0.3125 0.132813,0.148437 0.238281,0.34375 0.3125,0.59375 0.082031,0.25 0.125,0.554687 0.125,0.90625 v 0.234375 c 0,0.386719 -0.042969,0.710938 -0.125,0.96875 -0.074219,0.25 -0.179687,0.449219 -0.3125,0.59375 -0.125,0.148438 -0.289063,0.25 -0.484375,0.3125 C 5.082031,-5.40625 4.863281,-5.375 4.625,-5.375 Z m 0,5.140625 v -4.90625 H 4.625 c 0.664062,0 1.140625,0.203125 1.421875,0.609375 0.289063,0.40625 0.4375,0.984375 0.4375,1.734375 V -2.4375 c 0,0.699219 -0.136719,1.242188 -0.40625,1.625 C 5.804688,-0.425781 5.320312,-0.234375 4.625,-0.234375 Z m 0,0"
                 id="path326" />
            </g>
          </g>
        </g>
        <g
           fill="#000000"
           fill-opacity="1"
           id="g340">
          <g
             transform="translate(274.11466,12.278208)"
             id="g338">
            <g
               id="g336">
              <path
                 d="M 4.203125,-9.71875 H 0.3125 v 0.234375 h 1.25 v 7.0625 c 0,0.511719 0.097656,0.9375 0.296875,1.28125 0.195313,0.34375 0.453125,0.625 0.765625,0.84375 0.3125,0.2109375 0.660156,0.3515625 1.046875,0.4375 C 4.054688,0.234375 4.4375,0.28125 4.8125,0.28125 c 0.914062,0 1.628906,-0.2265625 2.140625,-0.671875 0.507813,-0.457031 0.765625,-1.132813 0.765625,-2.03125 v -7.0625 h 1.25 V -9.71875 H 6.25 v 0.234375 H 7.5 v 7.0625 c 0,0.386719 -0.0625,0.734375 -0.1875,1.046875 -0.117188,0.304688 -0.28125,0.558594 -0.5,0.765625 -0.210938,0.210937 -0.460938,0.367187 -0.75,0.46875 -0.28125,0.1054688 -0.585938,0.15625 -0.90625,0.15625 -0.679688,0 -1.214844,-0.207031 -1.609375,-0.625 -0.386719,-0.425781 -0.578125,-1.03125 -0.578125,-1.8125 v -7.0625 h 1.234375 z m 0,0"
                 id="path334" />
            </g>
          </g>
        </g>
        <g
           fill="#000000"
           fill-opacity="1"
           id="g348">
          <g
             transform="translate(289.70582,12.278208)"
             id="g346">
            <g
               id="g344">
              <path
                 d="m 5.21875,-0.234375 v -9.25 h 1.25 c 0.445312,0 0.832031,0.230469 1.15625,0.6875 0.332031,0.449219 0.554688,1.0625 0.671875,1.84375 H 8.59375 L 8.375,-9.484375 C 8.363281,-9.640625 8.269531,-9.71875 8.09375,-9.71875 H 0.953125 c -0.179687,0 -0.273437,0.078125 -0.28125,0.234375 l -0.21875,2.53125 H 0.75 c 0.101562,-0.78125 0.320312,-1.394531 0.65625,-1.84375 0.332031,-0.457031 0.722656,-0.6875 1.171875,-0.6875 H 3.8125 v 9.25 H 2.578125 V 0 H 6.46875 v -0.234375 z m 0,0"
                 id="path342" />
            </g>
          </g>
        </g>
        <g
           fill="#000000"
           fill-opacity="1"
           id="g356">
          <g
             transform="translate(305.02193,12.278208)"
             id="g354">
            <g
               id="g352">
              <path
                 d="m 3.125,-5 h 1.140625 c 0.21875,0 0.390625,0.03125 0.515625,0.09375 0.125,0.0625 0.222656,0.152344 0.296875,0.265625 0.070313,0.117187 0.125,0.257813 0.15625,0.421875 0.039063,0.15625 0.082031,0.339844 0.125,0.546875 0.019531,0.136719 0.054687,0.203125 0.109375,0.203125 0.0625,0 0.09375,-0.0625 0.09375,-0.1875 v -2.9375 c 0,-0.113281 -0.03125,-0.171875 -0.09375,-0.171875 -0.054688,0 -0.089844,0.070313 -0.109375,0.203125 -0.042969,0.199219 -0.085937,0.382812 -0.125,0.546875 -0.03125,0.167969 -0.085937,0.308594 -0.15625,0.421875 -0.074219,0.117188 -0.171875,0.203125 -0.296875,0.265625 -0.125,0.0625 -0.296875,0.09375 -0.515625,0.09375 H 3.125 v -4.25 h 2.203125 c 0.320313,0 0.59375,0.078125 0.8125,0.234375 0.226563,0.15625 0.410156,0.355469 0.546875,0.59375 0.132812,0.230469 0.234375,0.480469 0.296875,0.75 0.0625,0.261719 0.097656,0.5 0.109375,0.71875 0,0.136719 0.035156,0.203125 0.109375,0.203125 0.070313,0 0.109375,-0.0625 0.109375,-0.1875 V -9.375 c 0,-0.226562 -0.125,-0.34375 -0.375,-0.34375 H 0.484375 v 0.234375 H 1.71875 v 9.25 H 0.484375 V 0 h 6.8125 C 7.578125,0 7.71875,-0.15625 7.71875,-0.46875 v -2.171875 c 0,-0.226563 -0.042969,-0.34375 -0.125,-0.34375 -0.0625,0 -0.117188,0.105469 -0.15625,0.3125 -0.074219,0.367187 -0.15625,0.699219 -0.25,1 -0.085938,0.292969 -0.199219,0.546875 -0.34375,0.765625 -0.148438,0.21875 -0.328125,0.386719 -0.546875,0.5 -0.21875,0.117188 -0.5,0.171875 -0.84375,0.171875 H 3.125 Z m 0,0"
                 id="path350" />
            </g>
          </g>
        </g>
        <g
           fill="#000000"
           fill-opacity="1"
           id="g364">
          <g
             transform="translate(319.68669,12.278208)"
             id="g362">
            <g
               id="g360">
              <path
                 d="M 4.734375,-9.71875 H 0.46875 v 0.234375 h 1.265625 v 9.25 H 0.46875 V 0 h 4.265625 c 0.675781,0 1.289063,-0.113281 1.84375,-0.34375 0.5625,-0.238281 1.039063,-0.578125 1.4375,-1.015625 0.394531,-0.4375 0.703125,-0.957031 0.921875,-1.5625 0.21875,-0.613281 0.328125,-1.300781 0.328125,-2.0625 0,-0.695313 -0.117187,-1.335937 -0.34375,-1.921875 -0.21875,-0.582031 -0.53125,-1.082031 -0.9375,-1.5 C 7.585938,-8.832031 7.113281,-9.15625 6.5625,-9.375 6.007812,-9.601562 5.398438,-9.71875 4.734375,-9.71875 Z m 2.9375,4.375 v 0.734375 c 0,0.855469 -0.085937,1.5625 -0.25,2.125 -0.15625,0.5625 -0.371094,1.011719 -0.640625,1.34375 -0.273438,0.335937 -0.585938,0.570313 -0.9375,0.703125 -0.355469,0.136719 -0.734375,0.203125 -1.140625,0.203125 h -1.5625 v -9.25 h 1.5625 c 0.394531,0 0.769531,0.070313 1.125,0.203125 0.351563,0.136719 0.664063,0.367188 0.9375,0.6875 0.28125,0.324219 0.5,0.75 0.65625,1.28125 0.164063,0.53125 0.25,1.1875 0.25,1.96875 z m 0,0"
                 id="path358" />
            </g>
          </g>
        </g>
      </g>
    </g>
  </g>
</svg>
