<svg xmlns="http://www.w3.org/2000/svg" xmlns:xlink="http://www.w3.org/1999/xlink" width="800" zoomAndPan="magnify" viewBox="0 0 600 599.999999" height="800" preserveAspectRatio="xMidYMid meet" version="1.0"><defs><g/><clipPath id="b385b6c0ba"><rect x="0" width="437" y="0" height="49"/></clipPath><clipPath id="c903a77a9d"><path d="M 86 279.136719 L 122 279.136719 L 122 328 L 86 328 Z M 86 279.136719 " clip-rule="nonzero"/></clipPath><clipPath id="2d8020285d"><path d="M 27 279.136719 L 81 279.136719 L 81 316 L 27 316 Z M 27 279.136719 " clip-rule="nonzero"/></clipPath><clipPath id="05132a524e"><path d="M 85 279.136719 L 92 279.136719 L 92 289 L 85 289 Z M 85 279.136719 " clip-rule="nonzero"/></clipPath><clipPath id="4a075cc530"><rect x="0" width="337" y="0" height="16"/></clipPath></defs><g transform="matrix(1, 0, 0, 1, 142, 267)"><g clip-path="url(#b385b6c0ba)"><g fill="#000000" fill-opacity="1"><g transform="translate(0.960576, 36.733889)"><g><path d="M 20.03125 -6.421875 C 20.03125 -6.472656 20.082031 -6.5 20.1875 -6.5 C 20.269531 -6.5 20.34375 -6.476562 20.40625 -6.4375 C 20.476562 -6.394531 20.515625 -6.363281 20.515625 -6.34375 C 20.242188 -4.238281 20.109375 -2.328125 20.109375 -0.609375 C 20.109375 -0.390625 20.066406 -0.234375 19.984375 -0.140625 C 19.898438 -0.046875 19.738281 0 19.5 0 L 1.65625 0 C 1.570312 0 1.53125 -0.078125 1.53125 -0.234375 C 1.53125 -0.398438 1.570312 -0.484375 1.65625 -0.484375 C 2.519531 -0.484375 3.144531 -0.550781 3.53125 -0.6875 C 3.925781 -0.820312 4.1875 -1.082031 4.3125 -1.46875 C 4.445312 -1.863281 4.515625 -2.460938 4.515625 -3.265625 L 4.515625 -21.96875 C 4.515625 -22.769531 4.445312 -23.359375 4.3125 -23.734375 C 4.1875 -24.117188 3.921875 -24.382812 3.515625 -24.53125 C 3.109375 -24.675781 2.488281 -24.75 1.65625 -24.75 C 1.570312 -24.75 1.53125 -24.828125 1.53125 -24.984375 C 1.53125 -25.148438 1.570312 -25.234375 1.65625 -25.234375 L 18.78125 -25.234375 C 19.039062 -25.234375 19.171875 -25.113281 19.171875 -24.875 L 19.265625 -19.5 C 19.265625 -19.445312 19.1875 -19.40625 19.03125 -19.375 C 18.882812 -19.351562 18.800781 -19.378906 18.78125 -19.453125 C 18.34375 -21.015625 17.613281 -22.171875 16.59375 -22.921875 C 15.570312 -23.679688 14.226562 -24.0625 12.5625 -24.0625 L 11.34375 -24.0625 C 10.539062 -24.0625 9.945312 -23.882812 9.5625 -23.53125 C 9.1875 -23.1875 9 -22.648438 9 -21.921875 L 9 -13.6875 L 12.359375 -13.6875 C 13.921875 -13.6875 15.117188 -13.953125 15.953125 -14.484375 C 16.785156 -15.023438 17.203125 -15.78125 17.203125 -16.75 C 17.203125 -16.832031 17.273438 -16.875 17.421875 -16.875 C 17.566406 -16.875 17.640625 -16.832031 17.640625 -16.75 L 17.609375 -13.125 L 17.640625 -11.1875 C 17.691406 -10.269531 17.71875 -9.539062 17.71875 -9 C 17.71875 -8.945312 17.632812 -8.921875 17.46875 -8.921875 C 17.3125 -8.921875 17.234375 -8.945312 17.234375 -9 C 17.234375 -10.101562 16.8125 -10.972656 15.96875 -11.609375 C 15.125 -12.242188 13.90625 -12.5625 12.3125 -12.5625 L 9 -12.5625 L 9 -3.4375 C 9 -2.65625 9.144531 -2.070312 9.4375 -1.6875 C 9.738281 -1.3125 10.210938 -1.125 10.859375 -1.125 L 12.1875 -1.125 C 14.289062 -1.125 15.972656 -1.554688 17.234375 -2.421875 C 18.503906 -3.285156 19.4375 -4.617188 20.03125 -6.421875 Z M 20.03125 -6.421875 "/></g></g></g><g fill="#000000" fill-opacity="1"><g transform="translate(25.471924, 36.733889)"><g><path d="M 26.84375 -25.234375 C 26.925781 -25.234375 26.96875 -25.148438 26.96875 -24.984375 C 26.96875 -24.828125 26.925781 -24.75 26.84375 -24.75 C 25.875 -24.75 24.945312 -24.316406 24.0625 -23.453125 C 23.175781 -22.597656 22.460938 -21.441406 21.921875 -19.984375 L 14.453125 -0.046875 C 14.421875 0.0664062 14.273438 0.125 14.015625 0.125 C 13.742188 0.125 13.59375 0.0664062 13.5625 -0.046875 L 3.265625 -21.890625 C 2.785156 -22.859375 2.300781 -23.578125 1.8125 -24.046875 C 1.332031 -24.515625 0.796875 -24.75 0.203125 -24.75 C 0.117188 -24.75 0.078125 -24.828125 0.078125 -24.984375 C 0.078125 -25.148438 0.117188 -25.234375 0.203125 -25.234375 C 0.609375 -25.234375 0.890625 -25.21875 1.046875 -25.1875 C 1.585938 -25.132812 2.289062 -25.109375 3.15625 -25.109375 C 5.46875 -25.109375 7.429688 -25.132812 9.046875 -25.1875 C 9.472656 -25.21875 10.007812 -25.234375 10.65625 -25.234375 C 10.738281 -25.234375 10.78125 -25.148438 10.78125 -24.984375 C 10.78125 -24.828125 10.738281 -24.75 10.65625 -24.75 C 9.851562 -24.75 9.226562 -24.578125 8.78125 -24.234375 C 8.332031 -23.898438 8.109375 -23.425781 8.109375 -22.8125 C 8.109375 -22.351562 8.257812 -21.800781 8.5625 -21.15625 L 15.546875 -6.265625 L 20.796875 -20.109375 C 21.066406 -20.859375 21.203125 -21.503906 21.203125 -22.046875 C 21.203125 -22.878906 20.953125 -23.535156 20.453125 -24.015625 C 19.953125 -24.503906 19.234375 -24.75 18.296875 -24.75 C 18.210938 -24.75 18.171875 -24.828125 18.171875 -24.984375 C 18.171875 -25.148438 18.210938 -25.234375 18.296875 -25.234375 L 20.265625 -25.1875 C 21.398438 -25.132812 22.410156 -25.109375 23.296875 -25.109375 C 23.804688 -25.109375 24.4375 -25.132812 25.1875 -25.1875 Z M 26.84375 -25.234375 "/></g></g></g><g fill="#000000" fill-opacity="1"><g transform="translate(54.344381, 36.733889)"><g><path d="M 20.03125 -6.421875 C 20.03125 -6.472656 20.082031 -6.5 20.1875 -6.5 C 20.269531 -6.5 20.34375 -6.476562 20.40625 -6.4375 C 20.476562 -6.394531 20.515625 -6.363281 20.515625 -6.34375 C 20.242188 -4.238281 20.109375 -2.328125 20.109375 -0.609375 C 20.109375 -0.390625 20.066406 -0.234375 19.984375 -0.140625 C 19.898438 -0.046875 19.738281 0 19.5 0 L 1.65625 0 C 1.570312 0 1.53125 -0.078125 1.53125 -0.234375 C 1.53125 -0.398438 1.570312 -0.484375 1.65625 -0.484375 C 2.519531 -0.484375 3.144531 -0.550781 3.53125 -0.6875 C 3.925781 -0.820312 4.1875 -1.082031 4.3125 -1.46875 C 4.445312 -1.863281 4.515625 -2.460938 4.515625 -3.265625 L 4.515625 -21.96875 C 4.515625 -22.769531 4.445312 -23.359375 4.3125 -23.734375 C 4.1875 -24.117188 3.921875 -24.382812 3.515625 -24.53125 C 3.109375 -24.675781 2.488281 -24.75 1.65625 -24.75 C 1.570312 -24.75 1.53125 -24.828125 1.53125 -24.984375 C 1.53125 -25.148438 1.570312 -25.234375 1.65625 -25.234375 L 18.78125 -25.234375 C 19.039062 -25.234375 19.171875 -25.113281 19.171875 -24.875 L 19.265625 -19.5 C 19.265625 -19.445312 19.1875 -19.40625 19.03125 -19.375 C 18.882812 -19.351562 18.800781 -19.378906 18.78125 -19.453125 C 18.34375 -21.015625 17.613281 -22.171875 16.59375 -22.921875 C 15.570312 -23.679688 14.226562 -24.0625 12.5625 -24.0625 L 11.34375 -24.0625 C 10.539062 -24.0625 9.945312 -23.882812 9.5625 -23.53125 C 9.1875 -23.1875 9 -22.648438 9 -21.921875 L 9 -13.6875 L 12.359375 -13.6875 C 13.921875 -13.6875 15.117188 -13.953125 15.953125 -14.484375 C 16.785156 -15.023438 17.203125 -15.78125 17.203125 -16.75 C 17.203125 -16.832031 17.273438 -16.875 17.421875 -16.875 C 17.566406 -16.875 17.640625 -16.832031 17.640625 -16.75 L 17.609375 -13.125 L 17.640625 -11.1875 C 17.691406 -10.269531 17.71875 -9.539062 17.71875 -9 C 17.71875 -8.945312 17.632812 -8.921875 17.46875 -8.921875 C 17.3125 -8.921875 17.234375 -8.945312 17.234375 -9 C 17.234375 -10.101562 16.8125 -10.972656 15.96875 -11.609375 C 15.125 -12.242188 13.90625 -12.5625 12.3125 -12.5625 L 9 -12.5625 L 9 -3.4375 C 9 -2.65625 9.144531 -2.070312 9.4375 -1.6875 C 9.738281 -1.3125 10.210938 -1.125 10.859375 -1.125 L 12.1875 -1.125 C 14.289062 -1.125 15.972656 -1.554688 17.234375 -2.421875 C 18.503906 -3.285156 19.4375 -4.617188 20.03125 -6.421875 Z M 20.03125 -6.421875 "/></g></g></g><g fill="#000000" fill-opacity="1"><g transform="translate(78.85573, 36.733889)"><g><path d="M 28.578125 -0.484375 C 28.640625 -0.484375 28.671875 -0.398438 28.671875 -0.234375 C 28.671875 -0.078125 28.640625 0 28.578125 0 L 21.40625 0 C 20.8125 0 19.707031 -1.066406 18.09375 -3.203125 C 16.476562 -5.347656 14.523438 -8.34375 12.234375 -12.1875 C 12.015625 -12.164062 11.707031 -12.15625 11.3125 -12.15625 C 10.257812 -12.15625 9.515625 -12.164062 9.078125 -12.1875 L 9.078125 -3.265625 C 9.078125 -2.429688 9.144531 -1.828125 9.28125 -1.453125 C 9.414062 -1.078125 9.675781 -0.820312 10.0625 -0.6875 C 10.457031 -0.550781 11.085938 -0.484375 11.953125 -0.484375 C 12.003906 -0.484375 12.03125 -0.398438 12.03125 -0.234375 C 12.03125 -0.078125 12.003906 0 11.953125 0 C 11.066406 0 10.363281 -0.015625 9.84375 -0.046875 L 6.78125 -0.078125 L 3.828125 -0.046875 C 3.296875 -0.015625 2.570312 0 1.65625 0 C 1.570312 0 1.53125 -0.078125 1.53125 -0.234375 C 1.53125 -0.398438 1.570312 -0.484375 1.65625 -0.484375 C 2.519531 -0.484375 3.144531 -0.550781 3.53125 -0.6875 C 3.925781 -0.820312 4.195312 -1.082031 4.34375 -1.46875 C 4.488281 -1.863281 4.5625 -2.460938 4.5625 -3.265625 L 4.5625 -21.96875 C 4.5625 -22.769531 4.492188 -23.359375 4.359375 -23.734375 C 4.222656 -24.117188 3.953125 -24.382812 3.546875 -24.53125 C 3.148438 -24.675781 2.535156 -24.75 1.703125 -24.75 C 1.640625 -24.75 1.609375 -24.828125 1.609375 -24.984375 C 1.609375 -25.148438 1.640625 -25.234375 1.703125 -25.234375 L 3.828125 -25.1875 C 5.066406 -25.132812 6.050781 -25.109375 6.78125 -25.109375 C 7.695312 -25.109375 8.65625 -25.148438 9.65625 -25.234375 C 10 -25.265625 10.429688 -25.289062 10.953125 -25.3125 C 11.484375 -25.34375 12.070312 -25.359375 12.71875 -25.359375 C 15.164062 -25.359375 17.0625 -24.90625 18.40625 -24 C 19.757812 -23.101562 20.4375 -21.847656 20.4375 -20.234375 C 20.4375 -18.742188 20.03125 -17.398438 19.21875 -16.203125 C 18.40625 -15.003906 17.328125 -14.046875 15.984375 -13.328125 C 18.140625 -10.097656 19.941406 -7.566406 21.390625 -5.734375 C 22.847656 -3.898438 24.140625 -2.566406 25.265625 -1.734375 C 26.398438 -0.898438 27.503906 -0.484375 28.578125 -0.484375 Z M 9.078125 -13.328125 C 9.722656 -13.210938 10.503906 -13.15625 11.421875 -13.15625 C 12.984375 -13.15625 14.109375 -13.59375 14.796875 -14.46875 C 15.484375 -15.34375 15.828125 -16.75 15.828125 -18.6875 C 15.828125 -20.894531 15.503906 -22.414062 14.859375 -23.25 C 14.210938 -24.082031 13.285156 -24.5 12.078125 -24.5 C 10.992188 -24.5 10.222656 -24.296875 9.765625 -23.890625 C 9.304688 -23.492188 9.078125 -22.828125 9.078125 -21.890625 Z M 9.078125 -13.328125 "/></g></g></g><g fill="#000000" fill-opacity="1"><g transform="translate(107.364664, 36.733889)"><g><path d="M 17 0.484375 C 13.925781 0.484375 11.257812 -0.0859375 9 -1.234375 C 6.738281 -2.378906 5.003906 -3.929688 3.796875 -5.890625 C 2.585938 -7.859375 1.984375 -10.039062 1.984375 -12.4375 C 1.984375 -14.988281 2.660156 -17.273438 4.015625 -19.296875 C 5.378906 -21.316406 7.257812 -22.882812 9.65625 -24 C 12.050781 -25.113281 14.738281 -25.671875 17.71875 -25.671875 C 19.007812 -25.671875 20.300781 -25.570312 21.59375 -25.375 C 22.882812 -25.175781 23.921875 -24.914062 24.703125 -24.59375 C 25.003906 -24.476562 25.175781 -24.382812 25.21875 -24.3125 C 25.257812 -24.25 25.289062 -24.03125 25.3125 -23.65625 L 25.84375 -18.046875 C 25.84375 -17.960938 25.765625 -17.90625 25.609375 -17.875 C 25.460938 -17.851562 25.378906 -17.894531 25.359375 -18 C 25.003906 -18.894531 24.4375 -19.863281 23.65625 -20.90625 C 22.875 -21.957031 21.847656 -22.875 20.578125 -23.65625 C 19.316406 -24.4375 17.851562 -24.828125 16.1875 -24.828125 C 14.46875 -24.828125 12.894531 -24.351562 11.46875 -23.40625 C 10.039062 -22.46875 8.914062 -21.125 8.09375 -19.375 C 7.269531 -17.625 6.859375 -15.59375 6.859375 -13.28125 C 6.859375 -10.75 7.335938 -8.488281 8.296875 -6.5 C 9.253906 -4.507812 10.578125 -2.960938 12.265625 -1.859375 C 13.960938 -0.753906 15.875 -0.203125 18 -0.203125 C 19.101562 -0.203125 19.953125 -0.320312 20.546875 -0.5625 C 21.140625 -0.800781 21.570312 -1.269531 21.84375 -1.96875 C 22.113281 -2.675781 22.25 -3.71875 22.25 -5.09375 C 22.25 -6.488281 22.164062 -7.460938 22 -8.015625 C 21.84375 -8.566406 21.5 -8.9375 20.96875 -9.125 C 20.445312 -9.3125 19.523438 -9.40625 18.203125 -9.40625 C 18.046875 -9.40625 17.96875 -9.515625 17.96875 -9.734375 C 17.96875 -9.804688 17.988281 -9.875 18.03125 -9.9375 C 18.070312 -10.007812 18.117188 -10.046875 18.171875 -10.046875 C 20.453125 -9.910156 22.304688 -9.84375 23.734375 -9.84375 C 25.109375 -9.84375 26.535156 -9.882812 28.015625 -9.96875 C 28.128906 -9.96875 28.191406 -9.875 28.203125 -9.6875 C 28.210938 -9.5 28.148438 -9.40625 28.015625 -9.40625 C 27.535156 -9.4375 27.191406 -9.347656 26.984375 -9.140625 C 26.785156 -8.941406 26.660156 -8.53125 26.609375 -7.90625 C 26.554688 -7.289062 26.53125 -6.21875 26.53125 -4.6875 C 26.53125 -3.46875 26.578125 -2.601562 26.671875 -2.09375 C 26.765625 -1.582031 26.8125 -1.257812 26.8125 -1.125 C 26.8125 -0.96875 26.78125 -0.863281 26.71875 -0.8125 C 26.664062 -0.757812 26.546875 -0.703125 26.359375 -0.640625 C 22.890625 0.109375 19.769531 0.484375 17 0.484375 Z M 17 0.484375 "/></g></g></g><g fill="#000000" fill-opacity="1"><g transform="translate(139.104138, 36.733889)"><g><path d="M 28.578125 -0.484375 C 28.640625 -0.484375 28.671875 -0.398438 28.671875 -0.234375 C 28.671875 -0.078125 28.640625 0 28.578125 0 L 21.40625 0 C 20.8125 0 19.707031 -1.066406 18.09375 -3.203125 C 16.476562 -5.347656 14.523438 -8.34375 12.234375 -12.1875 C 12.015625 -12.164062 11.707031 -12.15625 11.3125 -12.15625 C 10.257812 -12.15625 9.515625 -12.164062 9.078125 -12.1875 L 9.078125 -3.265625 C 9.078125 -2.429688 9.144531 -1.828125 9.28125 -1.453125 C 9.414062 -1.078125 9.675781 -0.820312 10.0625 -0.6875 C 10.457031 -0.550781 11.085938 -0.484375 11.953125 -0.484375 C 12.003906 -0.484375 12.03125 -0.398438 12.03125 -0.234375 C 12.03125 -0.078125 12.003906 0 11.953125 0 C 11.066406 0 10.363281 -0.015625 9.84375 -0.046875 L 6.78125 -0.078125 L 3.828125 -0.046875 C 3.296875 -0.015625 2.570312 0 1.65625 0 C 1.570312 0 1.53125 -0.078125 1.53125 -0.234375 C 1.53125 -0.398438 1.570312 -0.484375 1.65625 -0.484375 C 2.519531 -0.484375 3.144531 -0.550781 3.53125 -0.6875 C 3.925781 -0.820312 4.195312 -1.082031 4.34375 -1.46875 C 4.488281 -1.863281 4.5625 -2.460938 4.5625 -3.265625 L 4.5625 -21.96875 C 4.5625 -22.769531 4.492188 -23.359375 4.359375 -23.734375 C 4.222656 -24.117188 3.953125 -24.382812 3.546875 -24.53125 C 3.148438 -24.675781 2.535156 -24.75 1.703125 -24.75 C 1.640625 -24.75 1.609375 -24.828125 1.609375 -24.984375 C 1.609375 -25.148438 1.640625 -25.234375 1.703125 -25.234375 L 3.828125 -25.1875 C 5.066406 -25.132812 6.050781 -25.109375 6.78125 -25.109375 C 7.695312 -25.109375 8.65625 -25.148438 9.65625 -25.234375 C 10 -25.265625 10.429688 -25.289062 10.953125 -25.3125 C 11.484375 -25.34375 12.070312 -25.359375 12.71875 -25.359375 C 15.164062 -25.359375 17.0625 -24.90625 18.40625 -24 C 19.757812 -23.101562 20.4375 -21.847656 20.4375 -20.234375 C 20.4375 -18.742188 20.03125 -17.398438 19.21875 -16.203125 C 18.40625 -15.003906 17.328125 -14.046875 15.984375 -13.328125 C 18.140625 -10.097656 19.941406 -7.566406 21.390625 -5.734375 C 22.847656 -3.898438 24.140625 -2.566406 25.265625 -1.734375 C 26.398438 -0.898438 27.503906 -0.484375 28.578125 -0.484375 Z M 9.078125 -13.328125 C 9.722656 -13.210938 10.503906 -13.15625 11.421875 -13.15625 C 12.984375 -13.15625 14.109375 -13.59375 14.796875 -14.46875 C 15.484375 -15.34375 15.828125 -16.75 15.828125 -18.6875 C 15.828125 -20.894531 15.503906 -22.414062 14.859375 -23.25 C 14.210938 -24.082031 13.285156 -24.5 12.078125 -24.5 C 10.992188 -24.5 10.222656 -24.296875 9.765625 -23.890625 C 9.304688 -23.492188 9.078125 -22.828125 9.078125 -21.890625 Z M 9.078125 -13.328125 "/></g></g></g><g fill="#000000" fill-opacity="1"><g transform="translate(167.613081, 36.733889)"><g><path d="M 14.78125 0.484375 C 12.269531 0.484375 10.039062 -0.0976562 8.09375 -1.265625 C 6.144531 -2.441406 4.640625 -4.03125 3.578125 -6.03125 C 2.515625 -8.039062 1.984375 -10.226562 1.984375 -12.59375 C 1.984375 -15.363281 2.679688 -17.738281 4.078125 -19.71875 C 5.472656 -21.695312 7.269531 -23.179688 9.46875 -24.171875 C 11.664062 -25.171875 13.90625 -25.671875 16.1875 -25.671875 C 18.75 -25.671875 21 -25.070312 22.9375 -23.875 C 24.875 -22.675781 26.359375 -21.09375 27.390625 -19.125 C 28.429688 -17.164062 28.953125 -15.082031 28.953125 -12.875 C 28.953125 -10.425781 28.304688 -8.175781 27.015625 -6.125 C 25.722656 -4.082031 23.992188 -2.46875 21.828125 -1.28125 C 19.660156 -0.101562 17.3125 0.484375 14.78125 0.484375 Z M 16.109375 -0.53125 C 17.617188 -0.53125 18.972656 -0.96875 20.171875 -1.84375 C 21.367188 -2.71875 22.300781 -3.992188 22.96875 -5.671875 C 23.644531 -7.359375 23.984375 -9.367188 23.984375 -11.703125 C 23.984375 -14.179688 23.601562 -16.394531 22.84375 -18.34375 C 22.09375 -20.300781 21.003906 -21.832031 19.578125 -22.9375 C 18.148438 -24.039062 16.484375 -24.59375 14.578125 -24.59375 C 12.128906 -24.59375 10.242188 -23.671875 8.921875 -21.828125 C 7.597656 -19.984375 6.9375 -17.40625 6.9375 -14.09375 C 6.9375 -11.476562 7.332031 -9.140625 8.125 -7.078125 C 8.925781 -5.023438 10.019531 -3.421875 11.40625 -2.265625 C 12.789062 -1.109375 14.359375 -0.53125 16.109375 -0.53125 Z M 16.109375 -0.53125 "/></g></g></g><g fill="#000000" fill-opacity="1"><g transform="translate(199.837074, 36.733889)"><g><path d="M 26.84375 -25.234375 C 26.925781 -25.234375 26.96875 -25.148438 26.96875 -24.984375 C 26.96875 -24.828125 26.925781 -24.75 26.84375 -24.75 C 25.875 -24.75 24.945312 -24.316406 24.0625 -23.453125 C 23.175781 -22.597656 22.460938 -21.441406 21.921875 -19.984375 L 14.453125 -0.046875 C 14.421875 0.0664062 14.273438 0.125 14.015625 0.125 C 13.742188 0.125 13.59375 0.0664062 13.5625 -0.046875 L 3.265625 -21.890625 C 2.785156 -22.859375 2.300781 -23.578125 1.8125 -24.046875 C 1.332031 -24.515625 0.796875 -24.75 0.203125 -24.75 C 0.117188 -24.75 0.078125 -24.828125 0.078125 -24.984375 C 0.078125 -25.148438 0.117188 -25.234375 0.203125 -25.234375 C 0.609375 -25.234375 0.890625 -25.21875 1.046875 -25.1875 C 1.585938 -25.132812 2.289062 -25.109375 3.15625 -25.109375 C 5.46875 -25.109375 7.429688 -25.132812 9.046875 -25.1875 C 9.472656 -25.21875 10.007812 -25.234375 10.65625 -25.234375 C 10.738281 -25.234375 10.78125 -25.148438 10.78125 -24.984375 C 10.78125 -24.828125 10.738281 -24.75 10.65625 -24.75 C 9.851562 -24.75 9.226562 -24.578125 8.78125 -24.234375 C 8.332031 -23.898438 8.109375 -23.425781 8.109375 -22.8125 C 8.109375 -22.351562 8.257812 -21.800781 8.5625 -21.15625 L 15.546875 -6.265625 L 20.796875 -20.109375 C 21.066406 -20.859375 21.203125 -21.503906 21.203125 -22.046875 C 21.203125 -22.878906 20.953125 -23.535156 20.453125 -24.015625 C 19.953125 -24.503906 19.234375 -24.75 18.296875 -24.75 C 18.210938 -24.75 18.171875 -24.828125 18.171875 -24.984375 C 18.171875 -25.148438 18.210938 -25.234375 18.296875 -25.234375 L 20.265625 -25.1875 C 21.398438 -25.132812 22.410156 -25.109375 23.296875 -25.109375 C 23.804688 -25.109375 24.4375 -25.132812 25.1875 -25.1875 Z M 26.84375 -25.234375 "/></g></g></g><g fill="#000000" fill-opacity="1"><g transform="translate(228.709532, 36.733889)"><g><path d="M 20.03125 -6.421875 C 20.03125 -6.472656 20.082031 -6.5 20.1875 -6.5 C 20.269531 -6.5 20.34375 -6.476562 20.40625 -6.4375 C 20.476562 -6.394531 20.515625 -6.363281 20.515625 -6.34375 C 20.242188 -4.238281 20.109375 -2.328125 20.109375 -0.609375 C 20.109375 -0.390625 20.066406 -0.234375 19.984375 -0.140625 C 19.898438 -0.046875 19.738281 0 19.5 0 L 1.65625 0 C 1.570312 0 1.53125 -0.078125 1.53125 -0.234375 C 1.53125 -0.398438 1.570312 -0.484375 1.65625 -0.484375 C 2.519531 -0.484375 3.144531 -0.550781 3.53125 -0.6875 C 3.925781 -0.820312 4.1875 -1.082031 4.3125 -1.46875 C 4.445312 -1.863281 4.515625 -2.460938 4.515625 -3.265625 L 4.515625 -21.96875 C 4.515625 -22.769531 4.445312 -23.359375 4.3125 -23.734375 C 4.1875 -24.117188 3.921875 -24.382812 3.515625 -24.53125 C 3.109375 -24.675781 2.488281 -24.75 1.65625 -24.75 C 1.570312 -24.75 1.53125 -24.828125 1.53125 -24.984375 C 1.53125 -25.148438 1.570312 -25.234375 1.65625 -25.234375 L 18.78125 -25.234375 C 19.039062 -25.234375 19.171875 -25.113281 19.171875 -24.875 L 19.265625 -19.5 C 19.265625 -19.445312 19.1875 -19.40625 19.03125 -19.375 C 18.882812 -19.351562 18.800781 -19.378906 18.78125 -19.453125 C 18.34375 -21.015625 17.613281 -22.171875 16.59375 -22.921875 C 15.570312 -23.679688 14.226562 -24.0625 12.5625 -24.0625 L 11.34375 -24.0625 C 10.539062 -24.0625 9.945312 -23.882812 9.5625 -23.53125 C 9.1875 -23.1875 9 -22.648438 9 -21.921875 L 9 -13.6875 L 12.359375 -13.6875 C 13.921875 -13.6875 15.117188 -13.953125 15.953125 -14.484375 C 16.785156 -15.023438 17.203125 -15.78125 17.203125 -16.75 C 17.203125 -16.832031 17.273438 -16.875 17.421875 -16.875 C 17.566406 -16.875 17.640625 -16.832031 17.640625 -16.75 L 17.609375 -13.125 L 17.640625 -11.1875 C 17.691406 -10.269531 17.71875 -9.539062 17.71875 -9 C 17.71875 -8.945312 17.632812 -8.921875 17.46875 -8.921875 C 17.3125 -8.921875 17.234375 -8.945312 17.234375 -9 C 17.234375 -10.101562 16.8125 -10.972656 15.96875 -11.609375 C 15.125 -12.242188 13.90625 -12.5625 12.3125 -12.5625 L 9 -12.5625 L 9 -3.4375 C 9 -2.65625 9.144531 -2.070312 9.4375 -1.6875 C 9.738281 -1.3125 10.210938 -1.125 10.859375 -1.125 L 12.1875 -1.125 C 14.289062 -1.125 15.972656 -1.554688 17.234375 -2.421875 C 18.503906 -3.285156 19.4375 -4.617188 20.03125 -6.421875 Z M 20.03125 -6.421875 "/></g></g></g><g fill="#000000" fill-opacity="1"><g transform="translate(253.220862, 36.733889)"><g/></g></g><g fill="#000000" fill-opacity="1"><g transform="translate(264.891189, 36.733889)"><g><path d="M 17 0.484375 C 13.925781 0.484375 11.257812 -0.0859375 9 -1.234375 C 6.738281 -2.378906 5.003906 -3.929688 3.796875 -5.890625 C 2.585938 -7.859375 1.984375 -10.039062 1.984375 -12.4375 C 1.984375 -14.988281 2.660156 -17.273438 4.015625 -19.296875 C 5.378906 -21.316406 7.257812 -22.882812 9.65625 -24 C 12.050781 -25.113281 14.738281 -25.671875 17.71875 -25.671875 C 19.007812 -25.671875 20.300781 -25.570312 21.59375 -25.375 C 22.882812 -25.175781 23.921875 -24.914062 24.703125 -24.59375 C 25.003906 -24.476562 25.175781 -24.382812 25.21875 -24.3125 C 25.257812 -24.25 25.289062 -24.03125 25.3125 -23.65625 L 25.84375 -18.046875 C 25.84375 -17.960938 25.765625 -17.90625 25.609375 -17.875 C 25.460938 -17.851562 25.378906 -17.894531 25.359375 -18 C 25.003906 -18.894531 24.4375 -19.863281 23.65625 -20.90625 C 22.875 -21.957031 21.847656 -22.875 20.578125 -23.65625 C 19.316406 -24.4375 17.851562 -24.828125 16.1875 -24.828125 C 14.46875 -24.828125 12.894531 -24.351562 11.46875 -23.40625 C 10.039062 -22.46875 8.914062 -21.125 8.09375 -19.375 C 7.269531 -17.625 6.859375 -15.59375 6.859375 -13.28125 C 6.859375 -10.75 7.335938 -8.488281 8.296875 -6.5 C 9.253906 -4.507812 10.578125 -2.960938 12.265625 -1.859375 C 13.960938 -0.753906 15.875 -0.203125 18 -0.203125 C 19.101562 -0.203125 19.953125 -0.320312 20.546875 -0.5625 C 21.140625 -0.800781 21.570312 -1.269531 21.84375 -1.96875 C 22.113281 -2.675781 22.25 -3.71875 22.25 -5.09375 C 22.25 -6.488281 22.164062 -7.460938 22 -8.015625 C 21.84375 -8.566406 21.5 -8.9375 20.96875 -9.125 C 20.445312 -9.3125 19.523438 -9.40625 18.203125 -9.40625 C 18.046875 -9.40625 17.96875 -9.515625 17.96875 -9.734375 C 17.96875 -9.804688 17.988281 -9.875 18.03125 -9.9375 C 18.070312 -10.007812 18.117188 -10.046875 18.171875 -10.046875 C 20.453125 -9.910156 22.304688 -9.84375 23.734375 -9.84375 C 25.109375 -9.84375 26.535156 -9.882812 28.015625 -9.96875 C 28.128906 -9.96875 28.191406 -9.875 28.203125 -9.6875 C 28.210938 -9.5 28.148438 -9.40625 28.015625 -9.40625 C 27.535156 -9.4375 27.191406 -9.347656 26.984375 -9.140625 C 26.785156 -8.941406 26.660156 -8.53125 26.609375 -7.90625 C 26.554688 -7.289062 26.53125 -6.21875 26.53125 -4.6875 C 26.53125 -3.46875 26.578125 -2.601562 26.671875 -2.09375 C 26.765625 -1.582031 26.8125 -1.257812 26.8125 -1.125 C 26.8125 -0.96875 26.78125 -0.863281 26.71875 -0.8125 C 26.664062 -0.757812 26.546875 -0.703125 26.359375 -0.640625 C 22.890625 0.109375 19.769531 0.484375 17 0.484375 Z M 17 0.484375 "/></g></g></g><g fill="#000000" fill-opacity="1"><g transform="translate(296.630654, 36.733889)"><g><path d="M 8.59375 -3.4375 C 8.59375 -2.726562 8.644531 -2.21875 8.75 -1.90625 C 8.863281 -1.601562 9.070312 -1.394531 9.375 -1.28125 C 9.6875 -1.175781 10.195312 -1.125 10.90625 -1.125 L 12.28125 -1.125 C 14.375 -1.125 16.1875 -1.679688 17.71875 -2.796875 C 19.257812 -3.921875 20.285156 -5.4375 20.796875 -7.34375 C 20.796875 -7.394531 20.847656 -7.421875 20.953125 -7.421875 C 21.003906 -7.421875 21.0625 -7.398438 21.125 -7.359375 C 21.195312 -7.328125 21.234375 -7.296875 21.234375 -7.265625 C 20.992188 -4.597656 20.875 -2.378906 20.875 -0.609375 C 20.875 -0.390625 20.828125 -0.234375 20.734375 -0.140625 C 20.640625 -0.046875 20.484375 0 20.265625 0 L 1.21875 0 C 1.15625 0 1.125 -0.078125 1.125 -0.234375 C 1.125 -0.398438 1.15625 -0.484375 1.21875 -0.484375 C 2.070312 -0.484375 2.691406 -0.550781 3.078125 -0.6875 C 3.472656 -0.820312 3.742188 -1.082031 3.890625 -1.46875 C 4.046875 -1.863281 4.125 -2.460938 4.125 -3.265625 L 4.125 -21.96875 C 4.125 -22.769531 4.046875 -23.359375 3.890625 -23.734375 C 3.742188 -24.117188 3.46875 -24.382812 3.0625 -24.53125 C 2.664062 -24.675781 2.050781 -24.75 1.21875 -24.75 C 1.15625 -24.75 1.125 -24.828125 1.125 -24.984375 C 1.125 -25.148438 1.15625 -25.234375 1.21875 -25.234375 L 3.265625 -25.1875 C 4.503906 -25.132812 5.53125 -25.109375 6.34375 -25.109375 C 7.144531 -25.109375 8.164062 -25.132812 9.40625 -25.1875 L 11.46875 -25.234375 C 11.550781 -25.234375 11.59375 -25.148438 11.59375 -24.984375 C 11.59375 -24.828125 11.550781 -24.75 11.46875 -24.75 C 10.632812 -24.75 10.015625 -24.675781 9.609375 -24.53125 C 9.203125 -24.382812 8.929688 -24.113281 8.796875 -23.71875 C 8.660156 -23.332031 8.59375 -22.734375 8.59375 -21.921875 Z M 8.59375 -3.4375 "/></g></g></g><g fill="#000000" fill-opacity="1"><g transform="translate(320.85937, 36.733889)"><g><path d="M 14.78125 0.484375 C 12.269531 0.484375 10.039062 -0.0976562 8.09375 -1.265625 C 6.144531 -2.441406 4.640625 -4.03125 3.578125 -6.03125 C 2.515625 -8.039062 1.984375 -10.226562 1.984375 -12.59375 C 1.984375 -15.363281 2.679688 -17.738281 4.078125 -19.71875 C 5.472656 -21.695312 7.269531 -23.179688 9.46875 -24.171875 C 11.664062 -25.171875 13.90625 -25.671875 16.1875 -25.671875 C 18.75 -25.671875 21 -25.070312 22.9375 -23.875 C 24.875 -22.675781 26.359375 -21.09375 27.390625 -19.125 C 28.429688 -17.164062 28.953125 -15.082031 28.953125 -12.875 C 28.953125 -10.425781 28.304688 -8.175781 27.015625 -6.125 C 25.722656 -4.082031 23.992188 -2.46875 21.828125 -1.28125 C 19.660156 -0.101562 17.3125 0.484375 14.78125 0.484375 Z M 16.109375 -0.53125 C 17.617188 -0.53125 18.972656 -0.96875 20.171875 -1.84375 C 21.367188 -2.71875 22.300781 -3.992188 22.96875 -5.671875 C 23.644531 -7.359375 23.984375 -9.367188 23.984375 -11.703125 C 23.984375 -14.179688 23.601562 -16.394531 22.84375 -18.34375 C 22.09375 -20.300781 21.003906 -21.832031 19.578125 -22.9375 C 18.148438 -24.039062 16.484375 -24.59375 14.578125 -24.59375 C 12.128906 -24.59375 10.242188 -23.671875 8.921875 -21.828125 C 7.597656 -19.984375 6.9375 -17.40625 6.9375 -14.09375 C 6.9375 -11.476562 7.332031 -9.140625 8.125 -7.078125 C 8.925781 -5.023438 10.019531 -3.421875 11.40625 -2.265625 C 12.789062 -1.109375 14.359375 -0.53125 16.109375 -0.53125 Z M 16.109375 -0.53125 "/></g></g></g><g fill="#000000" fill-opacity="1"><g transform="translate(354.012168, 36.733889)"><g><path d="M 14.53125 -14.171875 C 16.789062 -13.898438 18.585938 -13.144531 19.921875 -11.90625 C 21.253906 -10.664062 21.921875 -9.132812 21.921875 -7.3125 C 21.921875 -5.90625 21.515625 -4.632812 20.703125 -3.5 C 19.898438 -2.375 18.785156 -1.484375 17.359375 -0.828125 C 15.929688 -0.171875 14.34375 0.15625 12.59375 0.15625 C 11.84375 0.15625 10.984375 0.117188 10.015625 0.046875 C 9.640625 0.015625 9.175781 -0.0078125 8.625 -0.03125 C 8.070312 -0.0625 7.457031 -0.078125 6.78125 -0.078125 L 3.828125 -0.046875 C 3.296875 -0.015625 2.570312 0 1.65625 0 C 1.570312 0 1.53125 -0.078125 1.53125 -0.234375 C 1.53125 -0.398438 1.570312 -0.484375 1.65625 -0.484375 C 2.4375 -0.484375 3.023438 -0.554688 3.421875 -0.703125 C 3.828125 -0.847656 4.117188 -1.113281 4.296875 -1.5 C 4.472656 -1.894531 4.5625 -2.484375 4.5625 -3.265625 L 4.5625 -21.96875 C 4.5625 -23.09375 4.375 -23.835938 4 -24.203125 C 3.625 -24.566406 2.859375 -24.75 1.703125 -24.75 C 1.640625 -24.75 1.609375 -24.828125 1.609375 -24.984375 C 1.609375 -25.148438 1.640625 -25.234375 1.703125 -25.234375 L 3.828125 -25.1875 C 5.066406 -25.132812 6.050781 -25.109375 6.78125 -25.109375 C 7.53125 -25.109375 8.3125 -25.148438 9.125 -25.234375 C 9.394531 -25.265625 9.796875 -25.289062 10.328125 -25.3125 C 10.867188 -25.34375 11.34375 -25.359375 11.75 -25.359375 C 14.195312 -25.359375 16.09375 -24.910156 17.4375 -24.015625 C 18.78125 -23.128906 19.453125 -21.835938 19.453125 -20.140625 C 19.453125 -18.847656 19.03125 -17.675781 18.1875 -16.625 C 17.34375 -15.582031 16.125 -14.765625 14.53125 -14.171875 Z M 11.140625 -24.46875 C 10.359375 -24.46875 9.816406 -24.285156 9.515625 -23.921875 C 9.222656 -23.554688 9.078125 -22.878906 9.078125 -21.890625 L 9.078125 -14.21875 L 10.703125 -14.171875 C 12.097656 -14.171875 13.171875 -14.695312 13.921875 -15.75 C 14.679688 -16.800781 15.0625 -18.144531 15.0625 -19.78125 C 15.0625 -21.3125 14.722656 -22.472656 14.046875 -23.265625 C 13.378906 -24.066406 12.410156 -24.46875 11.140625 -24.46875 Z M 11.90625 -0.84375 C 15.4375 -0.84375 17.203125 -2.675781 17.203125 -6.34375 C 17.203125 -8.414062 16.703125 -10.054688 15.703125 -11.265625 C 14.710938 -12.472656 13.207031 -13.078125 11.1875 -13.078125 C 10.40625 -13.078125 9.703125 -13.050781 9.078125 -13 L 9.078125 -3.265625 C 9.078125 -2.378906 9.253906 -1.753906 9.609375 -1.390625 C 9.960938 -1.023438 10.726562 -0.84375 11.90625 -0.84375 Z M 11.90625 -0.84375 "/></g></g></g><g fill="#000000" fill-opacity="1"><g transform="translate(380.259856, 36.733889)"><g><path d="M 28.953125 -0.484375 C 29.085938 -0.484375 29.15625 -0.398438 29.15625 -0.234375 C 29.15625 -0.078125 29.085938 0 28.953125 0 C 28.410156 0 27.578125 -0.0234375 26.453125 -0.078125 C 25.265625 -0.128906 24.414062 -0.15625 23.90625 -0.15625 C 23.226562 -0.15625 22.40625 -0.128906 21.4375 -0.078125 C 20.519531 -0.0234375 19.796875 0 19.265625 0 C 19.148438 0 19.09375 -0.078125 19.09375 -0.234375 C 19.09375 -0.398438 19.148438 -0.484375 19.265625 -0.484375 C 19.960938 -0.484375 20.460938 -0.554688 20.765625 -0.703125 C 21.078125 -0.847656 21.234375 -1.113281 21.234375 -1.5 C 21.234375 -1.957031 20.96875 -2.722656 20.4375 -3.796875 L 17.6875 -9.25 L 7.75 -9.25 L 6.171875 -5.734375 C 5.828125 -4.953125 5.65625 -4.222656 5.65625 -3.546875 C 5.65625 -2.578125 6 -1.820312 6.6875 -1.28125 C 7.375 -0.75 8.296875 -0.484375 9.453125 -0.484375 C 9.585938 -0.484375 9.65625 -0.398438 9.65625 -0.234375 C 9.65625 -0.078125 9.585938 0 9.453125 0 C 8.960938 0 8.257812 -0.0234375 7.34375 -0.078125 C 6.320312 -0.128906 5.4375 -0.15625 4.6875 -0.15625 C 3.957031 -0.15625 3.082031 -0.128906 2.0625 -0.078125 C 1.144531 -0.0234375 0.40625 0 -0.15625 0 C -0.269531 0 -0.328125 -0.078125 -0.328125 -0.234375 C -0.328125 -0.398438 -0.269531 -0.484375 -0.15625 -0.484375 C 0.59375 -0.484375 1.222656 -0.632812 1.734375 -0.9375 C 2.242188 -1.25 2.753906 -1.800781 3.265625 -2.59375 C 3.773438 -3.394531 4.382812 -4.578125 5.09375 -6.140625 L 13.84375 -25.390625 C 13.894531 -25.472656 14.019531 -25.515625 14.21875 -25.515625 C 14.425781 -25.515625 14.546875 -25.472656 14.578125 -25.390625 L 24.671875 -5.53125 C 25.609375 -3.625 26.382812 -2.304688 27 -1.578125 C 27.625 -0.847656 28.273438 -0.484375 28.953125 -0.484375 Z M 8.28125 -10.375 L 17.078125 -10.375 L 12.4375 -19.578125 Z M 8.28125 -10.375 "/></g></g></g><g fill="#000000" fill-opacity="1"><g transform="translate(411.393612, 36.733889)"><g><path d="M 8.59375 -3.4375 C 8.59375 -2.726562 8.644531 -2.21875 8.75 -1.90625 C 8.863281 -1.601562 9.070312 -1.394531 9.375 -1.28125 C 9.6875 -1.175781 10.195312 -1.125 10.90625 -1.125 L 12.28125 -1.125 C 14.375 -1.125 16.1875 -1.679688 17.71875 -2.796875 C 19.257812 -3.921875 20.285156 -5.4375 20.796875 -7.34375 C 20.796875 -7.394531 20.847656 -7.421875 20.953125 -7.421875 C 21.003906 -7.421875 21.0625 -7.398438 21.125 -7.359375 C 21.195312 -7.328125 21.234375 -7.296875 21.234375 -7.265625 C 20.992188 -4.597656 20.875 -2.378906 20.875 -0.609375 C 20.875 -0.390625 20.828125 -0.234375 20.734375 -0.140625 C 20.640625 -0.046875 20.484375 0 20.265625 0 L 1.21875 0 C 1.15625 0 1.125 -0.078125 1.125 -0.234375 C 1.125 -0.398438 1.15625 -0.484375 1.21875 -0.484375 C 2.070312 -0.484375 2.691406 -0.550781 3.078125 -0.6875 C 3.472656 -0.820312 3.742188 -1.082031 3.890625 -1.46875 C 4.046875 -1.863281 4.125 -2.460938 4.125 -3.265625 L 4.125 -21.96875 C 4.125 -22.769531 4.046875 -23.359375 3.890625 -23.734375 C 3.742188 -24.117188 3.46875 -24.382812 3.0625 -24.53125 C 2.664062 -24.675781 2.050781 -24.75 1.21875 -24.75 C 1.15625 -24.75 1.125 -24.828125 1.125 -24.984375 C 1.125 -25.148438 1.15625 -25.234375 1.21875 -25.234375 L 3.265625 -25.1875 C 4.503906 -25.132812 5.53125 -25.109375 6.34375 -25.109375 C 7.144531 -25.109375 8.164062 -25.132812 9.40625 -25.1875 L 11.46875 -25.234375 C 11.550781 -25.234375 11.59375 -25.148438 11.59375 -24.984375 C 11.59375 -24.828125 11.550781 -24.75 11.46875 -24.75 C 10.632812 -24.75 10.015625 -24.675781 9.609375 -24.53125 C 9.203125 -24.382812 8.929688 -24.113281 8.796875 -23.71875 C 8.660156 -23.332031 8.59375 -22.734375 8.59375 -21.921875 Z M 8.59375 -3.4375 "/></g></g></g></g></g><g clip-path="url(#c903a77a9d)"><path fill="#000000" d="M 90.378906 307.222656 L 93.363281 305.003906 L 97.792969 304.558594 L 98.453125 305.636719 L 99.347656 305.339844 L 99.789062 303.675781 L 101.113281 303.582031 L 100.5625 302.011719 L 101.667969 301.898438 L 102.777344 302.789062 L 103.554688 301.675781 L 102.890625 299.792969 L 99.898438 299.347656 L 99.347656 300.898438 L 98.570312 300.792969 L 98.570312 299.347656 L 96.464844 296.464844 L 93.808594 295.023438 L 90.378906 293.476562 L 92.816406 288.035156 L 93.921875 288.703125 L 94.804688 286.265625 L 96.910156 286.375 L 97.457031 290.699219 L 98.234375 290.8125 L 101.449219 287.375 L 100.785156 285.597656 L 97.457031 284.933594 L 97.457031 280.71875 L 105.769531 281.605469 L 110.082031 279.054688 L 112.074219 280.941406 L 117.507812 277.945312 L 120.492188 279.71875 L 119.386719 281.386719 L 120.605469 281.386719 L 120.9375 282.605469 L 119.277344 282.824219 L 120.9375 284.15625 L 120.386719 286.039062 L 118.945312 286.375 L 121.269531 288.261719 L 117.613281 286.488281 L 115.625 285.375 L 112.410156 287.375 L 109.863281 291.699219 L 109.863281 295.578125 L 108.3125 298.464844 L 105.769531 302.453125 L 102.664062 303.558594 L 101.335938 304.226562 L 99.789062 306.222656 L 98.707031 306.054688 L 99.898438 308 L 98.902344 311.988281 L 96.796875 313.871094 L 99.347656 324.191406 L 98.457031 326.410156 L 95.910156 327.074219 L 97.457031 325.40625 L 95.359375 321.417969 L 90.816406 317.535156 L 90.488281 315.761719 L 88.269531 315.425781 L 86.054688 310.882812 L 89.929688 309 Z M 90.378906 307.222656 " fill-opacity="1" fill-rule="nonzero"/></g><path fill="#000000" d="M 37.484375 308.003906 L 37.71875 309.886719 L 39.316406 309.308594 L 39.019531 308.285156 L 40.761719 308.144531 L 43.023438 310.253906 L 45.417969 311.121094 L 44.832031 314.390625 L 45.054688 315.039062 L 44.179688 315.546875 L 40.625 314.664062 L 39.25 315.464844 L 38.59375 315.101562 L 38.160156 316.421875 L 36.347656 316.933594 L 35.039062 316.128906 L 34.3125 312.214844 L 36.273438 310.253906 Z M 37.484375 308.003906 " fill-opacity="1" fill-rule="nonzero"/><path fill="#000000" d="M 46.289062 306.183594 L 44.402344 306.546875 L 43.527344 303.859375 L 44.039062 303.417969 L 46.578125 305.019531 Z M 46.289062 306.183594 " fill-opacity="1" fill-rule="nonzero"/><path fill="#000000" d="M 35.332031 308.144531 L 35.980469 306.761719 L 38.957031 305.3125 L 40.480469 305.457031 L 38.523438 307.492188 L 37.398438 307.570312 L 36.925781 307.125 Z M 35.332031 308.144531 " fill-opacity="1" fill-rule="nonzero"/><path fill="#000000" d="M 36.925781 288.957031 L 37.429688 288.957031 L 37.507812 291.574219 L 38.8125 294.335938 L 40.480469 295.574219 L 40.554688 296.660156 L 37.507812 294.84375 L 37.363281 292.957031 L 36.347656 292.011719 L 37.140625 291.355469 L 36.710938 289.832031 Z M 36.925781 288.957031 " fill-opacity="1" fill-rule="nonzero"/><path fill="#000000" d="M 29.089844 315.339844 L 28.867188 317.375 L 31.117188 319.484375 L 29.664062 319.628906 L 28.363281 317.664062 L 27.347656 316.285156 L 28 316.214844 Z M 29.089844 315.339844 " fill-opacity="1" fill-rule="nonzero"/><path fill="#000000" d="M 77.59375 284.757812 L 77.59375 286.871094 L 76.128906 286.226562 L 75.714844 285.578125 L 77.304688 282.519531 L 78.238281 283.167969 L 78.179688 283.988281 L 79.0625 285.054688 L 79.125 286.167969 L 78.0625 286.167969 Z M 77.59375 284.757812 " fill-opacity="1" fill-rule="nonzero"/><path fill="#000000" d="M 64.320312 309.691406 L 64.378906 312.046875 L 63.433594 312.457031 L 62.496094 309.632812 L 62.734375 308.457031 Z M 64.320312 309.691406 " fill-opacity="1" fill-rule="nonzero"/><g clip-path="url(#2d8020285d)"><path fill="#000000" d="M 29.742188 284.597656 L 27.125 283.144531 L 27.851562 281.109375 L 47.105469 278.390625 C 47.105469 278.390625 58.769531 279.628906 65.203125 280.304688 L 70.777344 279.277344 L 73.015625 280.511719 L 73.894531 282.6875 L 74.953125 283.511719 L 75.011719 285.335938 L 74.425781 285.6875 L 73.191406 284.984375 L 72.597656 286.863281 L 71.546875 286.453125 L 70.839844 284.566406 L 71.546875 283.804688 L 70.898438 282.394531 L 70.140625 281.449219 L 69.671875 281.523438 L 70.109375 282.628906 L 70.605469 282.984375 L 70.421875 283.429688 L 70.457031 283.507812 L 70.390625 283.511719 L 69.960938 284.566406 L 68.726562 284.21875 L 68.300781 284.71875 L 69.667969 285.160156 L 69.367188 286.28125 L 70.253906 285.980469 L 70.898438 287.628906 L 73.191406 287.570312 L 73.605469 286.394531 L 74.132812 287.101562 L 73.953125 287.863281 L 74.777344 287.925781 L 75.777344 289.277344 L 77.597656 289.867188 L 77.125 290.867188 L 76.367188 292.101562 L 78.773438 291.925781 L 78.65625 294.28125 L 76.773438 294.574219 L 75.542969 292.628906 L 73.777344 291.746094 L 73.015625 292.628906 L 71.960938 294.046875 L 71.191406 293.15625 L 72.664062 292.164062 L 72.722656 291.21875 L 72.019531 291.570312 L 70.839844 292.515625 L 70.898438 293.453125 L 70.019531 294.574219 L 69.609375 293.15625 L 69.136719 293.394531 L 68.492188 294.515625 L 66.503906 294.84375 L 66.824219 295.933594 L 67.574219 296.382812 L 70.457031 295.644531 L 71.183594 296.660156 L 73.070312 295.425781 L 73.359375 294.195312 L 78.003906 294.992188 L 80.402344 297.898438 L 80.839844 301.820312 L 78.367188 304.222656 L 73.9375 303.929688 L 72.636719 308 L 73.140625 310.324219 L 71.039062 315.410156 L 68.640625 314.976562 L 66.25 310.46875 L 64.945312 309.453125 L 65.304688 306.328125 L 62.980469 304.222656 L 62.253906 301.675781 L 64.578125 302.765625 L 66.953125 297.324219 L 66.46875 297.242188 L 64.140625 301.820312 L 59.640625 299.132812 L 61.167969 297.972656 L 62.328125 298.550781 L 63.054688 296.804688 L 62.546875 296.519531 L 61.535156 297.386719 L 58.042969 298.042969 L 56.597656 299.789062 L 55.289062 303.054688 L 54.269531 302.042969 L 54.269531 300.804688 L 51.445312 298.839844 L 50.429688 301.023438 L 49.585938 300.8125 L 49.414062 302.984375 L 48.539062 304.582031 L 50.425781 303.636719 L 49.046875 305.597656 L 47.523438 307.054688 L 43.894531 307.707031 L 45.851562 306.910156 L 47.308594 306.398438 L 47.8125 304.070312 L 48.976562 302.757812 L 48.933594 301.449219 L 47.597656 302.835938 L 46.289062 301.746094 L 47.519531 299.925781 L 46.945312 298.984375 L 44.257812 298.835938 L 43.023438 296.585938 L 43.894531 294.121094 L 42.804688 292.957031 L 42.003906 294.046875 L 41.710938 295.425781 L 40.769531 294.921875 L 41.132812 293.394531 L 40.335938 292.230469 L 39.027344 292.015625 L 37.507812 287.796875 L 38.8125 286.851562 L 37 285.105469 L 34.601562 285.25 L 32.640625 283.65625 L 31.117188 283.433594 L 33.585938 286.417969 L 33.511719 289.03125 L 31.625 286.703125 L 31.699219 285.03125 Z M 65.257812 293.273438 L 66.546875 292.925781 L 68.3125 293.21875 L 68.722656 292.457031 L 67.785156 290.808594 L 64.726562 292.398438 Z M 63.140625 294.277344 L 62.851562 293.15625 L 63.496094 291.515625 L 61.671875 290.515625 L 61.671875 291.394531 L 62.378906 291.6875 L 61.789062 292.574219 L 61.5 294.398438 Z M 63.140625 294.277344 " fill-opacity="1" fill-rule="nonzero"/></g><g clip-path="url(#05132a524e)"><path fill="#000000" d="M 87.816406 280.097656 L 89.449219 279.652344 L 91.46875 281.8125 L 88.871094 288.589844 L 87.640625 288.890625 L 87.542969 286.691406 L 86.710938 286.175781 L 86.664062 285.339844 L 85.808594 283.726562 L 86.402344 282.5 Z M 87.816406 280.097656 " fill-opacity="1" fill-rule="nonzero"/></g><g transform="matrix(1, 0, 0, 1, 194, 316)"><g clip-path="url(#4a075cc530)"><g fill="#000000" fill-opacity="1"><g transform="translate(1.086447, 12.278208)"><g><path d="M 7.59375 -7.46875 C 7.59375 -7.820312 7.507812 -8.140625 7.34375 -8.421875 C 7.1875 -8.710938 6.96875 -8.953125 6.6875 -9.140625 C 6.414062 -9.328125 6.097656 -9.46875 5.734375 -9.5625 C 5.378906 -9.664062 5.007812 -9.71875 4.625 -9.71875 L 0.421875 -9.71875 L 0.421875 -9.484375 L 1.65625 -9.484375 L 1.65625 -0.234375 L 0.421875 -0.234375 L 0.421875 0 L 4.75 0 C 5.75 0 6.523438 -0.226562 7.078125 -0.6875 C 7.640625 -1.15625 7.921875 -1.800781 7.921875 -2.625 C 7.921875 -3.039062 7.832031 -3.40625 7.65625 -3.71875 C 7.488281 -4.039062 7.28125 -4.3125 7.03125 -4.53125 C 6.78125 -4.757812 6.503906 -4.929688 6.203125 -5.046875 C 5.898438 -5.171875 5.617188 -5.25 5.359375 -5.28125 C 5.671875 -5.34375 5.960938 -5.425781 6.234375 -5.53125 C 6.515625 -5.644531 6.753906 -5.789062 6.953125 -5.96875 C 7.148438 -6.144531 7.304688 -6.351562 7.421875 -6.59375 C 7.535156 -6.84375 7.59375 -7.132812 7.59375 -7.46875 Z M 3.0625 -5.375 L 3.0625 -9.484375 L 4.625 -9.484375 C 4.863281 -9.484375 5.082031 -9.453125 5.28125 -9.390625 C 5.476562 -9.328125 5.640625 -9.222656 5.765625 -9.078125 C 5.898438 -8.929688 6.003906 -8.734375 6.078125 -8.484375 C 6.160156 -8.234375 6.203125 -7.929688 6.203125 -7.578125 L 6.203125 -7.34375 C 6.203125 -6.957031 6.160156 -6.632812 6.078125 -6.375 C 6.003906 -6.125 5.898438 -5.925781 5.765625 -5.78125 C 5.640625 -5.632812 5.476562 -5.53125 5.28125 -5.46875 C 5.082031 -5.40625 4.863281 -5.375 4.625 -5.375 Z M 3.0625 -0.234375 L 3.0625 -5.140625 L 4.625 -5.140625 C 5.289062 -5.140625 5.765625 -4.9375 6.046875 -4.53125 C 6.335938 -4.125 6.484375 -3.546875 6.484375 -2.796875 L 6.484375 -2.4375 C 6.484375 -1.738281 6.347656 -1.195312 6.078125 -0.8125 C 5.804688 -0.425781 5.320312 -0.234375 4.625 -0.234375 Z M 3.0625 -0.234375 "/></g></g></g><g fill="#000000" fill-opacity="1"><g transform="translate(16.098596, 12.278208)"><g><path d="M 3.125 -5 L 4.265625 -5 C 4.484375 -5 4.65625 -4.96875 4.78125 -4.90625 C 4.90625 -4.84375 5.003906 -4.753906 5.078125 -4.640625 C 5.148438 -4.523438 5.203125 -4.382812 5.234375 -4.21875 C 5.273438 -4.0625 5.316406 -3.878906 5.359375 -3.671875 C 5.378906 -3.535156 5.414062 -3.46875 5.46875 -3.46875 C 5.53125 -3.46875 5.5625 -3.53125 5.5625 -3.65625 L 5.5625 -6.59375 C 5.5625 -6.707031 5.53125 -6.765625 5.46875 -6.765625 C 5.414062 -6.765625 5.378906 -6.695312 5.359375 -6.5625 C 5.316406 -6.363281 5.273438 -6.179688 5.234375 -6.015625 C 5.203125 -5.847656 5.148438 -5.707031 5.078125 -5.59375 C 5.003906 -5.476562 4.90625 -5.390625 4.78125 -5.328125 C 4.65625 -5.265625 4.484375 -5.234375 4.265625 -5.234375 L 3.125 -5.234375 L 3.125 -9.484375 L 5.328125 -9.484375 C 5.648438 -9.484375 5.921875 -9.40625 6.140625 -9.25 C 6.367188 -9.09375 6.550781 -8.894531 6.6875 -8.65625 C 6.820312 -8.425781 6.921875 -8.175781 6.984375 -7.90625 C 7.046875 -7.644531 7.082031 -7.40625 7.09375 -7.1875 C 7.09375 -7.050781 7.128906 -6.984375 7.203125 -6.984375 C 7.273438 -6.984375 7.3125 -7.046875 7.3125 -7.171875 L 7.3125 -9.375 C 7.3125 -9.601562 7.1875 -9.71875 6.9375 -9.71875 L 0.484375 -9.71875 L 0.484375 -9.484375 L 1.71875 -9.484375 L 1.71875 -0.234375 L 0.484375 -0.234375 L 0.484375 0 L 7.296875 0 C 7.578125 0 7.71875 -0.15625 7.71875 -0.46875 L 7.71875 -2.640625 C 7.71875 -2.867188 7.675781 -2.984375 7.59375 -2.984375 C 7.53125 -2.984375 7.476562 -2.878906 7.4375 -2.671875 C 7.363281 -2.304688 7.28125 -1.972656 7.1875 -1.671875 C 7.101562 -1.378906 6.988281 -1.125 6.84375 -0.90625 C 6.695312 -0.6875 6.515625 -0.519531 6.296875 -0.40625 C 6.078125 -0.289062 5.796875 -0.234375 5.453125 -0.234375 L 3.125 -0.234375 Z M 3.125 -5 "/></g></g></g><g fill="#000000" fill-opacity="1"><g transform="translate(30.763337, 12.278208)"><g><path d="M 0.3125 -0.234375 L 0.3125 0 L 3.53125 0 L 3.53125 -0.234375 L 1.828125 -0.234375 L 2.734375 -3.03125 L 5.640625 -3.03125 L 6.578125 -0.234375 L 5.09375 -0.234375 L 5.09375 0 L 9.328125 0 L 9.328125 -0.234375 L 8.078125 -0.234375 L 4.90625 -9.859375 L 4.734375 -9.859375 L 1.5625 -0.234375 Z M 4.1875 -7.390625 L 5.578125 -3.25 L 2.828125 -3.25 Z M 4.1875 -7.390625 "/></g></g></g><g fill="#000000" fill-opacity="1"><g transform="translate(46.687424, 12.278208)"><g><path d="M 4.203125 -9.71875 L 0.3125 -9.71875 L 0.3125 -9.484375 L 1.5625 -9.484375 L 1.5625 -2.421875 C 1.5625 -1.910156 1.660156 -1.484375 1.859375 -1.140625 C 2.054688 -0.796875 2.3125 -0.515625 2.625 -0.296875 C 2.9375 -0.0859375 3.285156 0.0546875 3.671875 0.140625 C 4.054688 0.234375 4.4375 0.28125 4.8125 0.28125 C 5.726562 0.28125 6.441406 0.0546875 6.953125 -0.390625 C 7.460938 -0.847656 7.71875 -1.523438 7.71875 -2.421875 L 7.71875 -9.484375 L 8.96875 -9.484375 L 8.96875 -9.71875 L 6.25 -9.71875 L 6.25 -9.484375 L 7.5 -9.484375 L 7.5 -2.421875 C 7.5 -2.035156 7.4375 -1.6875 7.3125 -1.375 C 7.195312 -1.070312 7.03125 -0.816406 6.8125 -0.609375 C 6.601562 -0.398438 6.351562 -0.242188 6.0625 -0.140625 C 5.78125 -0.0351562 5.476562 0.015625 5.15625 0.015625 C 4.476562 0.015625 3.941406 -0.191406 3.546875 -0.609375 C 3.160156 -1.035156 2.96875 -1.640625 2.96875 -2.421875 L 2.96875 -9.484375 L 4.203125 -9.484375 Z M 4.203125 -9.71875 "/></g></g></g><g fill="#000000" fill-opacity="1"><g transform="translate(62.27858, 12.278208)"><g><path d="M 5.21875 -0.234375 L 5.21875 -9.484375 L 6.46875 -9.484375 C 6.914062 -9.484375 7.300781 -9.253906 7.625 -8.796875 C 7.957031 -8.347656 8.179688 -7.734375 8.296875 -6.953125 L 8.59375 -6.953125 L 8.375 -9.484375 C 8.363281 -9.640625 8.269531 -9.71875 8.09375 -9.71875 L 0.953125 -9.71875 C 0.773438 -9.71875 0.679688 -9.640625 0.671875 -9.484375 L 0.453125 -6.953125 L 0.75 -6.953125 C 0.851562 -7.734375 1.070312 -8.347656 1.40625 -8.796875 C 1.738281 -9.253906 2.128906 -9.484375 2.578125 -9.484375 L 3.8125 -9.484375 L 3.8125 -0.234375 L 2.578125 -0.234375 L 2.578125 0 L 6.46875 0 L 6.46875 -0.234375 Z M 5.21875 -0.234375 "/></g></g></g><g fill="#000000" fill-opacity="1"><g transform="translate(77.594708, 12.278208)"><g><path d="M 4.515625 -9.484375 L 4.515625 -9.71875 L 0.625 -9.71875 L 0.625 -9.484375 L 1.859375 -9.484375 L 1.859375 -0.234375 L 0.625 -0.234375 L 0.625 0 L 4.515625 0 L 4.515625 -0.234375 L 3.265625 -0.234375 L 3.265625 -9.484375 Z M 4.515625 -9.484375 "/></g></g></g><g fill="#000000" fill-opacity="1"><g transform="translate(89.089378, 12.278208)"><g><path d="M 0.53125 -9.484375 L 1.78125 -9.484375 L 1.78125 -0.234375 L 0.5625 -0.234375 L 0.5625 0 L 4.421875 0 L 4.421875 -0.234375 L 3.1875 -0.234375 L 3.1875 -5 L 4.328125 -5 C 4.535156 -5 4.703125 -4.96875 4.828125 -4.90625 C 4.953125 -4.84375 5.050781 -4.753906 5.125 -4.640625 C 5.195312 -4.523438 5.253906 -4.382812 5.296875 -4.21875 C 5.335938 -4.0625 5.375 -3.878906 5.40625 -3.671875 C 5.4375 -3.535156 5.476562 -3.46875 5.53125 -3.46875 C 5.582031 -3.46875 5.609375 -3.53125 5.609375 -3.65625 L 5.609375 -6.59375 C 5.609375 -6.707031 5.582031 -6.765625 5.53125 -6.765625 C 5.476562 -6.765625 5.4375 -6.695312 5.40625 -6.5625 C 5.375 -6.363281 5.335938 -6.179688 5.296875 -6.015625 C 5.253906 -5.847656 5.195312 -5.707031 5.125 -5.59375 C 5.050781 -5.476562 4.953125 -5.390625 4.828125 -5.328125 C 4.703125 -5.265625 4.535156 -5.234375 4.328125 -5.234375 L 3.1875 -5.234375 L 3.1875 -9.484375 L 5.375 -9.484375 C 5.707031 -9.484375 5.984375 -9.40625 6.203125 -9.25 C 6.429688 -9.09375 6.609375 -8.894531 6.734375 -8.65625 C 6.867188 -8.425781 6.96875 -8.175781 7.03125 -7.90625 C 7.101562 -7.644531 7.140625 -7.40625 7.140625 -7.1875 C 7.140625 -7.050781 7.179688 -6.984375 7.265625 -6.984375 C 7.328125 -6.984375 7.359375 -7.046875 7.359375 -7.171875 L 7.359375 -9.375 C 7.359375 -9.601562 7.238281 -9.71875 7 -9.71875 L 0.53125 -9.71875 Z M 0.53125 -9.484375 "/></g></g></g><g fill="#000000" fill-opacity="1"><g transform="translate(103.377768, 12.278208)"><g><path d="M 4.203125 -9.71875 L 0.3125 -9.71875 L 0.3125 -9.484375 L 1.5625 -9.484375 L 1.5625 -2.421875 C 1.5625 -1.910156 1.660156 -1.484375 1.859375 -1.140625 C 2.054688 -0.796875 2.3125 -0.515625 2.625 -0.296875 C 2.9375 -0.0859375 3.285156 0.0546875 3.671875 0.140625 C 4.054688 0.234375 4.4375 0.28125 4.8125 0.28125 C 5.726562 0.28125 6.441406 0.0546875 6.953125 -0.390625 C 7.460938 -0.847656 7.71875 -1.523438 7.71875 -2.421875 L 7.71875 -9.484375 L 8.96875 -9.484375 L 8.96875 -9.71875 L 6.25 -9.71875 L 6.25 -9.484375 L 7.5 -9.484375 L 7.5 -2.421875 C 7.5 -2.035156 7.4375 -1.6875 7.3125 -1.375 C 7.195312 -1.070312 7.03125 -0.816406 6.8125 -0.609375 C 6.601562 -0.398438 6.351562 -0.242188 6.0625 -0.140625 C 5.78125 -0.0351562 5.476562 0.015625 5.15625 0.015625 C 4.476562 0.015625 3.941406 -0.191406 3.546875 -0.609375 C 3.160156 -1.035156 2.96875 -1.640625 2.96875 -2.421875 L 2.96875 -9.484375 L 4.203125 -9.484375 Z M 4.203125 -9.71875 "/></g></g></g><g fill="#000000" fill-opacity="1"><g transform="translate(118.968924, 12.278208)"><g><path d="M 8.03125 -2.671875 C 7.957031 -2.304688 7.875 -1.972656 7.78125 -1.671875 C 7.695312 -1.378906 7.582031 -1.125 7.4375 -0.90625 C 7.289062 -0.6875 7.101562 -0.519531 6.875 -0.40625 C 6.65625 -0.289062 6.378906 -0.234375 6.046875 -0.234375 L 3.078125 -0.234375 L 3.078125 -9.484375 L 4.453125 -9.484375 L 4.453125 -9.71875 L 0.4375 -9.71875 L 0.4375 -9.484375 L 1.671875 -9.484375 L 1.671875 -0.234375 L 0.4375 -0.234375 L 0.4375 0 L 7.890625 0 C 8.171875 0 8.3125 -0.15625 8.3125 -0.46875 L 8.3125 -2.640625 C 8.3125 -2.867188 8.269531 -2.984375 8.1875 -2.984375 C 8.125 -2.984375 8.070312 -2.878906 8.03125 -2.671875 Z M 8.03125 -2.671875 "/></g></g></g><g fill="#000000" fill-opacity="1"><g transform="translate(133.995549, 12.278208)"><g><path d="M 8.03125 -2.671875 C 7.957031 -2.304688 7.875 -1.972656 7.78125 -1.671875 C 7.695312 -1.378906 7.582031 -1.125 7.4375 -0.90625 C 7.289062 -0.6875 7.101562 -0.519531 6.875 -0.40625 C 6.65625 -0.289062 6.378906 -0.234375 6.046875 -0.234375 L 3.078125 -0.234375 L 3.078125 -9.484375 L 4.453125 -9.484375 L 4.453125 -9.71875 L 0.4375 -9.71875 L 0.4375 -9.484375 L 1.671875 -9.484375 L 1.671875 -0.234375 L 0.4375 -0.234375 L 0.4375 0 L 7.890625 0 C 8.171875 0 8.3125 -0.15625 8.3125 -0.46875 L 8.3125 -2.640625 C 8.3125 -2.867188 8.269531 -2.984375 8.1875 -2.984375 C 8.125 -2.984375 8.070312 -2.878906 8.03125 -2.671875 Z M 8.03125 -2.671875 "/></g></g></g><g fill="#000000" fill-opacity="1"><g transform="translate(149.022174, 12.278208)"><g><path d="M 4.5 -9.71875 L 0.46875 -9.71875 L 0.46875 -9.484375 L 1.625 -9.484375 L 4.421875 -4.78125 L 4.421875 -0.234375 L 3.03125 -0.234375 L 3.03125 0 L 7.21875 0 L 7.21875 -0.234375 L 5.828125 -0.234375 L 5.828125 -5.15625 L 8.21875 -9.484375 L 9.390625 -9.484375 L 9.390625 -9.71875 L 6.4375 -9.71875 L 6.4375 -9.484375 L 7.84375 -9.484375 L 5.59375 -5.40625 L 3.171875 -9.484375 L 4.5 -9.484375 Z M 4.5 -9.71875 "/></g></g></g><g fill="#000000" fill-opacity="1"><g transform="translate(164.960737, 12.278208)"><g/></g></g><g fill="#000000" fill-opacity="1"><g transform="translate(175.210545, 12.278208)"><g><path d="M 4.734375 -9.71875 L 0.46875 -9.71875 L 0.46875 -9.484375 L 1.734375 -9.484375 L 1.734375 -0.234375 L 0.46875 -0.234375 L 0.46875 0 L 4.734375 0 C 5.410156 0 6.023438 -0.113281 6.578125 -0.34375 C 7.140625 -0.582031 7.617188 -0.921875 8.015625 -1.359375 C 8.410156 -1.796875 8.71875 -2.316406 8.9375 -2.921875 C 9.15625 -3.535156 9.265625 -4.222656 9.265625 -4.984375 C 9.265625 -5.679688 9.148438 -6.320312 8.921875 -6.90625 C 8.703125 -7.488281 8.390625 -7.988281 7.984375 -8.40625 C 7.585938 -8.832031 7.113281 -9.15625 6.5625 -9.375 C 6.007812 -9.601562 5.398438 -9.71875 4.734375 -9.71875 Z M 7.671875 -5.34375 L 7.671875 -4.609375 C 7.671875 -3.753906 7.585938 -3.046875 7.421875 -2.484375 C 7.265625 -1.921875 7.050781 -1.472656 6.78125 -1.140625 C 6.507812 -0.804688 6.195312 -0.570312 5.84375 -0.4375 C 5.488281 -0.300781 5.109375 -0.234375 4.703125 -0.234375 L 3.140625 -0.234375 L 3.140625 -9.484375 L 4.703125 -9.484375 C 5.097656 -9.484375 5.472656 -9.414062 5.828125 -9.28125 C 6.179688 -9.144531 6.492188 -8.914062 6.765625 -8.59375 C 7.046875 -8.269531 7.265625 -7.84375 7.421875 -7.3125 C 7.585938 -6.78125 7.671875 -6.125 7.671875 -5.34375 Z M 7.671875 -5.34375 "/></g></g></g><g fill="#000000" fill-opacity="1"><g transform="translate(191.149091, 12.278208)"><g><path d="M 4.515625 -9.484375 L 4.515625 -9.71875 L 0.625 -9.71875 L 0.625 -9.484375 L 1.859375 -9.484375 L 1.859375 -0.234375 L 0.625 -0.234375 L 0.625 0 L 4.515625 0 L 4.515625 -0.234375 L 3.265625 -0.234375 L 3.265625 -9.484375 Z M 4.515625 -9.484375 "/></g></g></g><g fill="#000000" fill-opacity="1"><g transform="translate(202.64377, 12.278208)"><g><path d="M 6.53125 -9.828125 L 6.109375 -9.28125 C 5.929688 -9.382812 5.765625 -9.472656 5.609375 -9.546875 C 5.453125 -9.628906 5.296875 -9.691406 5.140625 -9.734375 C 4.984375 -9.785156 4.816406 -9.820312 4.640625 -9.84375 C 4.460938 -9.863281 4.253906 -9.875 4.015625 -9.875 C 3.546875 -9.875 3.125 -9.796875 2.75 -9.640625 C 2.382812 -9.492188 2.070312 -9.289062 1.8125 -9.03125 C 1.550781 -8.769531 1.351562 -8.46875 1.21875 -8.125 C 1.082031 -7.789062 1.015625 -7.4375 1.015625 -7.0625 C 1.015625 -6.550781 1.171875 -6.082031 1.484375 -5.65625 C 1.796875 -5.226562 2.285156 -4.90625 2.953125 -4.6875 C 3.265625 -4.582031 3.53125 -4.492188 3.75 -4.421875 C 3.976562 -4.359375 4.1875 -4.296875 4.375 -4.234375 C 4.570312 -4.171875 4.769531 -4.101562 4.96875 -4.03125 C 5.164062 -3.957031 5.394531 -3.859375 5.65625 -3.734375 C 5.988281 -3.578125 6.210938 -3.359375 6.328125 -3.078125 C 6.441406 -2.804688 6.5 -2.53125 6.5 -2.25 C 6.5 -1.90625 6.429688 -1.585938 6.296875 -1.296875 C 6.160156 -1.015625 5.976562 -0.773438 5.75 -0.578125 C 5.53125 -0.390625 5.273438 -0.242188 4.984375 -0.140625 C 4.703125 -0.0351562 4.410156 0.015625 4.109375 0.015625 C 3.765625 0.015625 3.429688 -0.0390625 3.109375 -0.15625 C 2.796875 -0.28125 2.503906 -0.453125 2.234375 -0.671875 C 1.960938 -0.898438 1.726562 -1.175781 1.53125 -1.5 C 1.332031 -1.832031 1.179688 -2.203125 1.078125 -2.609375 C 1.046875 -2.734375 0.988281 -2.796875 0.90625 -2.796875 C 0.84375 -2.796875 0.8125 -2.726562 0.8125 -2.59375 L 0.8125 0 C 0.8125 0.125 0.851562 0.1875 0.9375 0.1875 C 1 0.1875 1.0625 0.140625 1.125 0.046875 L 1.65625 -0.703125 C 1.769531 -0.597656 1.910156 -0.488281 2.078125 -0.375 C 2.242188 -0.257812 2.429688 -0.148438 2.640625 -0.046875 C 2.847656 0.046875 3.066406 0.125 3.296875 0.1875 C 3.535156 0.25 3.78125 0.28125 4.03125 0.28125 C 4.5 0.28125 4.929688 0.191406 5.328125 0.015625 C 5.722656 -0.148438 6.0625 -0.378906 6.34375 -0.671875 C 6.632812 -0.972656 6.863281 -1.328125 7.03125 -1.734375 C 7.207031 -2.148438 7.296875 -2.59375 7.296875 -3.0625 C 7.296875 -3.707031 7.140625 -4.253906 6.828125 -4.703125 C 6.523438 -5.148438 6.046875 -5.472656 5.390625 -5.671875 C 5.171875 -5.734375 4.960938 -5.789062 4.765625 -5.84375 C 4.578125 -5.894531 4.378906 -5.945312 4.171875 -6 C 3.972656 -6.0625 3.765625 -6.128906 3.546875 -6.203125 C 3.328125 -6.273438 3.082031 -6.363281 2.8125 -6.46875 C 2.507812 -6.582031 2.28125 -6.757812 2.125 -7 C 1.96875 -7.238281 1.890625 -7.519531 1.890625 -7.84375 C 1.890625 -8.144531 1.953125 -8.40625 2.078125 -8.625 C 2.203125 -8.851562 2.363281 -9.039062 2.5625 -9.1875 C 2.757812 -9.332031 2.984375 -9.441406 3.234375 -9.515625 C 3.492188 -9.585938 3.753906 -9.625 4.015625 -9.625 C 4.410156 -9.625 4.757812 -9.554688 5.0625 -9.421875 C 5.363281 -9.285156 5.613281 -9.101562 5.8125 -8.875 C 6.019531 -8.65625 6.179688 -8.398438 6.296875 -8.109375 C 6.421875 -7.828125 6.503906 -7.53125 6.546875 -7.21875 C 6.546875 -7.125 6.585938 -7.078125 6.671875 -7.078125 C 6.734375 -7.078125 6.765625 -7.125 6.765625 -7.21875 L 6.765625 -9.796875 C 6.765625 -9.890625 6.738281 -9.9375 6.6875 -9.9375 C 6.632812 -9.9375 6.582031 -9.898438 6.53125 -9.828125 Z M 6.53125 -9.828125 "/></g></g></g><g fill="#000000" fill-opacity="1"><g transform="translate(216.845295, 12.278208)"><g><path d="M 5.21875 -0.234375 L 5.21875 -9.484375 L 6.46875 -9.484375 C 6.914062 -9.484375 7.300781 -9.253906 7.625 -8.796875 C 7.957031 -8.347656 8.179688 -7.734375 8.296875 -6.953125 L 8.59375 -6.953125 L 8.375 -9.484375 C 8.363281 -9.640625 8.269531 -9.71875 8.09375 -9.71875 L 0.953125 -9.71875 C 0.773438 -9.71875 0.679688 -9.640625 0.671875 -9.484375 L 0.453125 -6.953125 L 0.75 -6.953125 C 0.851562 -7.734375 1.070312 -8.347656 1.40625 -8.796875 C 1.738281 -9.253906 2.128906 -9.484375 2.578125 -9.484375 L 3.8125 -9.484375 L 3.8125 -0.234375 L 2.578125 -0.234375 L 2.578125 0 L 6.46875 0 L 6.46875 -0.234375 Z M 5.21875 -0.234375 "/></g></g></g><g fill="#000000" fill-opacity="1"><g transform="translate(232.161441, 12.278208)"><g><path d="M 7.640625 -0.625 C 7.609375 -0.71875 7.582031 -0.847656 7.5625 -1.015625 C 7.550781 -1.191406 7.539062 -1.378906 7.53125 -1.578125 C 7.53125 -1.785156 7.53125 -1.992188 7.53125 -2.203125 C 7.53125 -2.421875 7.515625 -2.628906 7.484375 -2.828125 C 7.421875 -3.210938 7.320312 -3.53125 7.1875 -3.78125 C 7.050781 -4.03125 6.882812 -4.234375 6.6875 -4.390625 C 6.5 -4.546875 6.28125 -4.671875 6.03125 -4.765625 C 5.78125 -4.859375 5.507812 -4.941406 5.21875 -5.015625 C 5.976562 -5.148438 6.554688 -5.414062 6.953125 -5.8125 C 7.359375 -6.21875 7.5625 -6.722656 7.5625 -7.328125 C 7.5625 -7.710938 7.484375 -8.050781 7.328125 -8.34375 C 7.171875 -8.644531 6.957031 -8.894531 6.6875 -9.09375 C 6.414062 -9.300781 6.09375 -9.457031 5.71875 -9.5625 C 5.351562 -9.664062 4.960938 -9.71875 4.546875 -9.71875 L 0.46875 -9.71875 L 0.46875 -9.484375 L 1.703125 -9.484375 L 1.703125 -0.234375 L 0.46875 -0.234375 L 0.46875 0 L 4.359375 0 L 4.359375 -0.234375 L 3.109375 -0.234375 L 3.109375 -4.96875 L 4.3125 -4.96875 C 4.46875 -4.96875 4.628906 -4.9375 4.796875 -4.875 C 4.972656 -4.820312 5.132812 -4.722656 5.28125 -4.578125 C 5.4375 -4.429688 5.566406 -4.222656 5.671875 -3.953125 C 5.785156 -3.691406 5.867188 -3.351562 5.921875 -2.9375 C 5.953125 -2.6875 5.96875 -2.429688 5.96875 -2.171875 C 5.96875 -1.910156 5.976562 -1.660156 6 -1.421875 C 6.03125 -1.179688 6.078125 -0.957031 6.140625 -0.75 C 6.203125 -0.550781 6.300781 -0.378906 6.4375 -0.234375 C 6.5625 -0.0976562 6.707031 -0.0078125 6.875 0.03125 C 7.050781 0.0820312 7.234375 0.109375 7.421875 0.109375 C 7.585938 0.109375 7.75 0.09375 7.90625 0.0625 C 8.070312 0.03125 8.222656 -0.00390625 8.359375 -0.046875 C 8.503906 -0.0976562 8.628906 -0.148438 8.734375 -0.203125 C 8.835938 -0.265625 8.910156 -0.316406 8.953125 -0.359375 C 8.984375 -0.390625 9 -0.421875 9 -0.453125 C 9 -0.472656 8.984375 -0.484375 8.953125 -0.484375 C 8.929688 -0.484375 8.90625 -0.476562 8.875 -0.46875 C 8.675781 -0.332031 8.457031 -0.265625 8.21875 -0.265625 C 7.914062 -0.265625 7.722656 -0.382812 7.640625 -0.625 Z M 3.109375 -5.1875 L 3.109375 -9.484375 L 4.546875 -9.484375 C 5.640625 -9.484375 6.1875 -8.851562 6.1875 -7.59375 L 6.1875 -7.078125 C 6.1875 -5.816406 5.640625 -5.1875 4.546875 -5.1875 Z M 3.109375 -5.1875 "/></g></g></g><g fill="#000000" fill-opacity="1"><g transform="translate(247.607836, 12.278208)"><g><path d="M 4.515625 -9.484375 L 4.515625 -9.71875 L 0.625 -9.71875 L 0.625 -9.484375 L 1.859375 -9.484375 L 1.859375 -0.234375 L 0.625 -0.234375 L 0.625 0 L 4.515625 0 L 4.515625 -0.234375 L 3.265625 -0.234375 L 3.265625 -9.484375 Z M 4.515625 -9.484375 "/></g></g></g><g fill="#000000" fill-opacity="1"><g transform="translate(259.102515, 12.278208)"><g><path d="M 7.59375 -7.46875 C 7.59375 -7.820312 7.507812 -8.140625 7.34375 -8.421875 C 7.1875 -8.710938 6.96875 -8.953125 6.6875 -9.140625 C 6.414062 -9.328125 6.097656 -9.46875 5.734375 -9.5625 C 5.378906 -9.664062 5.007812 -9.71875 4.625 -9.71875 L 0.421875 -9.71875 L 0.421875 -9.484375 L 1.65625 -9.484375 L 1.65625 -0.234375 L 0.421875 -0.234375 L 0.421875 0 L 4.75 0 C 5.75 0 6.523438 -0.226562 7.078125 -0.6875 C 7.640625 -1.15625 7.921875 -1.800781 7.921875 -2.625 C 7.921875 -3.039062 7.832031 -3.40625 7.65625 -3.71875 C 7.488281 -4.039062 7.28125 -4.3125 7.03125 -4.53125 C 6.78125 -4.757812 6.503906 -4.929688 6.203125 -5.046875 C 5.898438 -5.171875 5.617188 -5.25 5.359375 -5.28125 C 5.671875 -5.34375 5.960938 -5.425781 6.234375 -5.53125 C 6.515625 -5.644531 6.753906 -5.789062 6.953125 -5.96875 C 7.148438 -6.144531 7.304688 -6.351562 7.421875 -6.59375 C 7.535156 -6.84375 7.59375 -7.132812 7.59375 -7.46875 Z M 3.0625 -5.375 L 3.0625 -9.484375 L 4.625 -9.484375 C 4.863281 -9.484375 5.082031 -9.453125 5.28125 -9.390625 C 5.476562 -9.328125 5.640625 -9.222656 5.765625 -9.078125 C 5.898438 -8.929688 6.003906 -8.734375 6.078125 -8.484375 C 6.160156 -8.234375 6.203125 -7.929688 6.203125 -7.578125 L 6.203125 -7.34375 C 6.203125 -6.957031 6.160156 -6.632812 6.078125 -6.375 C 6.003906 -6.125 5.898438 -5.925781 5.765625 -5.78125 C 5.640625 -5.632812 5.476562 -5.53125 5.28125 -5.46875 C 5.082031 -5.40625 4.863281 -5.375 4.625 -5.375 Z M 3.0625 -0.234375 L 3.0625 -5.140625 L 4.625 -5.140625 C 5.289062 -5.140625 5.765625 -4.9375 6.046875 -4.53125 C 6.335938 -4.125 6.484375 -3.546875 6.484375 -2.796875 L 6.484375 -2.4375 C 6.484375 -1.738281 6.347656 -1.195312 6.078125 -0.8125 C 5.804688 -0.425781 5.320312 -0.234375 4.625 -0.234375 Z M 3.0625 -0.234375 "/></g></g></g><g fill="#000000" fill-opacity="1"><g transform="translate(274.114663, 12.278208)"><g><path d="M 4.203125 -9.71875 L 0.3125 -9.71875 L 0.3125 -9.484375 L 1.5625 -9.484375 L 1.5625 -2.421875 C 1.5625 -1.910156 1.660156 -1.484375 1.859375 -1.140625 C 2.054688 -0.796875 2.3125 -0.515625 2.625 -0.296875 C 2.9375 -0.0859375 3.285156 0.0546875 3.671875 0.140625 C 4.054688 0.234375 4.4375 0.28125 4.8125 0.28125 C 5.726562 0.28125 6.441406 0.0546875 6.953125 -0.390625 C 7.460938 -0.847656 7.71875 -1.523438 7.71875 -2.421875 L 7.71875 -9.484375 L 8.96875 -9.484375 L 8.96875 -9.71875 L 6.25 -9.71875 L 6.25 -9.484375 L 7.5 -9.484375 L 7.5 -2.421875 C 7.5 -2.035156 7.4375 -1.6875 7.3125 -1.375 C 7.195312 -1.070312 7.03125 -0.816406 6.8125 -0.609375 C 6.601562 -0.398438 6.351562 -0.242188 6.0625 -0.140625 C 5.78125 -0.0351562 5.476562 0.015625 5.15625 0.015625 C 4.476562 0.015625 3.941406 -0.191406 3.546875 -0.609375 C 3.160156 -1.035156 2.96875 -1.640625 2.96875 -2.421875 L 2.96875 -9.484375 L 4.203125 -9.484375 Z M 4.203125 -9.71875 "/></g></g></g><g fill="#000000" fill-opacity="1"><g transform="translate(289.705819, 12.278208)"><g><path d="M 5.21875 -0.234375 L 5.21875 -9.484375 L 6.46875 -9.484375 C 6.914062 -9.484375 7.300781 -9.253906 7.625 -8.796875 C 7.957031 -8.347656 8.179688 -7.734375 8.296875 -6.953125 L 8.59375 -6.953125 L 8.375 -9.484375 C 8.363281 -9.640625 8.269531 -9.71875 8.09375 -9.71875 L 0.953125 -9.71875 C 0.773438 -9.71875 0.679688 -9.640625 0.671875 -9.484375 L 0.453125 -6.953125 L 0.75 -6.953125 C 0.851562 -7.734375 1.070312 -8.347656 1.40625 -8.796875 C 1.738281 -9.253906 2.128906 -9.484375 2.578125 -9.484375 L 3.8125 -9.484375 L 3.8125 -0.234375 L 2.578125 -0.234375 L 2.578125 0 L 6.46875 0 L 6.46875 -0.234375 Z M 5.21875 -0.234375 "/></g></g></g><g fill="#000000" fill-opacity="1"><g transform="translate(305.02193, 12.278208)"><g><path d="M 3.125 -5 L 4.265625 -5 C 4.484375 -5 4.65625 -4.96875 4.78125 -4.90625 C 4.90625 -4.84375 5.003906 -4.753906 5.078125 -4.640625 C 5.148438 -4.523438 5.203125 -4.382812 5.234375 -4.21875 C 5.273438 -4.0625 5.316406 -3.878906 5.359375 -3.671875 C 5.378906 -3.535156 5.414062 -3.46875 5.46875 -3.46875 C 5.53125 -3.46875 5.5625 -3.53125 5.5625 -3.65625 L 5.5625 -6.59375 C 5.5625 -6.707031 5.53125 -6.765625 5.46875 -6.765625 C 5.414062 -6.765625 5.378906 -6.695312 5.359375 -6.5625 C 5.316406 -6.363281 5.273438 -6.179688 5.234375 -6.015625 C 5.203125 -5.847656 5.148438 -5.707031 5.078125 -5.59375 C 5.003906 -5.476562 4.90625 -5.390625 4.78125 -5.328125 C 4.65625 -5.265625 4.484375 -5.234375 4.265625 -5.234375 L 3.125 -5.234375 L 3.125 -9.484375 L 5.328125 -9.484375 C 5.648438 -9.484375 5.921875 -9.40625 6.140625 -9.25 C 6.367188 -9.09375 6.550781 -8.894531 6.6875 -8.65625 C 6.820312 -8.425781 6.921875 -8.175781 6.984375 -7.90625 C 7.046875 -7.644531 7.082031 -7.40625 7.09375 -7.1875 C 7.09375 -7.050781 7.128906 -6.984375 7.203125 -6.984375 C 7.273438 -6.984375 7.3125 -7.046875 7.3125 -7.171875 L 7.3125 -9.375 C 7.3125 -9.601562 7.1875 -9.71875 6.9375 -9.71875 L 0.484375 -9.71875 L 0.484375 -9.484375 L 1.71875 -9.484375 L 1.71875 -0.234375 L 0.484375 -0.234375 L 0.484375 0 L 7.296875 0 C 7.578125 0 7.71875 -0.15625 7.71875 -0.46875 L 7.71875 -2.640625 C 7.71875 -2.867188 7.675781 -2.984375 7.59375 -2.984375 C 7.53125 -2.984375 7.476562 -2.878906 7.4375 -2.671875 C 7.363281 -2.304688 7.28125 -1.972656 7.1875 -1.671875 C 7.101562 -1.378906 6.988281 -1.125 6.84375 -0.90625 C 6.695312 -0.6875 6.515625 -0.519531 6.296875 -0.40625 C 6.078125 -0.289062 5.796875 -0.234375 5.453125 -0.234375 L 3.125 -0.234375 Z M 3.125 -5 "/></g></g></g><g fill="#000000" fill-opacity="1"><g transform="translate(319.686688, 12.278208)"><g><path d="M 4.734375 -9.71875 L 0.46875 -9.71875 L 0.46875 -9.484375 L 1.734375 -9.484375 L 1.734375 -0.234375 L 0.46875 -0.234375 L 0.46875 0 L 4.734375 0 C 5.410156 0 6.023438 -0.113281 6.578125 -0.34375 C 7.140625 -0.582031 7.617188 -0.921875 8.015625 -1.359375 C 8.410156 -1.796875 8.71875 -2.316406 8.9375 -2.921875 C 9.15625 -3.535156 9.265625 -4.222656 9.265625 -4.984375 C 9.265625 -5.679688 9.148438 -6.320312 8.921875 -6.90625 C 8.703125 -7.488281 8.390625 -7.988281 7.984375 -8.40625 C 7.585938 -8.832031 7.113281 -9.15625 6.5625 -9.375 C 6.007812 -9.601562 5.398438 -9.71875 4.734375 -9.71875 Z M 7.671875 -5.34375 L 7.671875 -4.609375 C 7.671875 -3.753906 7.585938 -3.046875 7.421875 -2.484375 C 7.265625 -1.921875 7.050781 -1.472656 6.78125 -1.140625 C 6.507812 -0.804688 6.195312 -0.570312 5.84375 -0.4375 C 5.488281 -0.300781 5.109375 -0.234375 4.703125 -0.234375 L 3.140625 -0.234375 L 3.140625 -9.484375 L 4.703125 -9.484375 C 5.097656 -9.484375 5.472656 -9.414062 5.828125 -9.28125 C 6.179688 -9.144531 6.492188 -8.914062 6.765625 -8.59375 C 7.046875 -8.269531 7.265625 -7.84375 7.421875 -7.3125 C 7.585938 -6.78125 7.671875 -6.125 7.671875 -5.34375 Z M 7.671875 -5.34375 "/></g></g></g></g></g></svg>